<svg width="684" height="127" viewBox="0 0 684 127" fill="none" xmlns="http://www.w3.org/2000/svg">
<g clip-path="url(#clip0_188_190)">
<path d="M2.02 101.3V24.79C2.02 20.88 1.78 16.97 1.31 13.08L0 2.25H41.83C65.2 2.25 75.58 14.88 75.58 40.34C75.58 65.8 64.91 78.43 40.82 78.43H13.27V98C13.27 104.11 13.85 110.2 14.99 116.2L16.45 123.84H0L1.31 113.01C1.78 109.13 2.02 105.22 2.02 101.3ZM39.37 67.99C56.82 67.99 64.32 59.2 64.32 40.71C64.32 22.22 57.11 12.69 40.38 12.69H13.13V67.99H39.38H39.37Z" fill="#0C0C0D"/>
<path d="M155.77 123.84H140.91L139.68 115.96C138.86 110.72 137.62 105.56 135.97 100.53L133.7 93.63H84.37L82.17 100.13C80.37 105.43 79.04 110.87 78.18 116.4L77.02 123.84H63.75L100.27 15.17C101.37 11.91 101.29 8.37 100.06 5.16L98.94 2.25H115.24L155.77 123.84ZM130.09 83.01L109.03 19.47L87.83 83.01H130.09Z" fill="#0C0C0D"/>
<path d="M289.16 71.28C306.9 68.72 316.56 56.27 316.56 37.41C316.56 14.89 305.74 2.25 283.53 2.25H240.84L242.15 13.08C242.63 16.97 242.86 20.88 242.86 24.79V101.3C242.86 105.21 242.63 109.12 242.15 113.01L241.49 118.47L211.44 71.28C229.18 68.72 238.84 56.27 238.84 37.41C238.84 14.89 228.02 2.25 205.81 2.25H163.12L164.44 13.08C164.91 16.97 165.14 20.88 165.14 24.79V101.3C165.14 105.21 164.91 109.12 164.44 113.01L163.12 123.84H178.84L177.42 114.22C176.73 109.53 176.38 104.79 176.38 100.05V73.3H199.6L216.21 99.7C220.78 106.97 224.38 114.81 226.89 123.03L227.14 123.84H256.55L255.13 114.22C254.44 109.53 254.09 104.79 254.09 100.05V73.3H277.31L293.92 99.7C298.49 106.97 302.09 114.81 304.6 123.03L304.85 123.84H322.59L289.13 71.28H289.16ZM176.1 62.5V12.32H204.37C219.95 12.32 227.59 21.29 227.59 37.41C227.59 53.53 217.92 62.5 202.35 62.5H176.1ZM253.82 62.5V12.32H282.09C297.67 12.32 305.31 21.29 305.31 37.41C305.31 53.53 295.64 62.5 280.07 62.5H253.82Z" fill="#0C0C0D"/>
<path d="M338.48 101.3V24.79C338.48 20.88 338.24 16.97 337.77 13.08L336.46 2.25H351.6L350.34 13.49C349.93 17.1 349.73 20.74 349.73 24.37V101.71C349.73 105.35 349.93 108.98 350.34 112.59L351.6 123.83H336.46L337.77 113C338.24 109.12 338.48 105.21 338.48 101.29V101.3Z" fill="#0C0C0D"/>
<path d="M405.06 13.06V98C405.06 104.11 405.64 110.2 406.78 116.2L408.24 123.84H390.64L392.1 116.2C393.24 110.2 393.82 104.11 393.82 98V13.06H387.16C378 13.06 368.88 14.35 360.08 16.91L361.81 2.26001H437.1L438.83 16.91C430.03 14.36 420.91 13.06 411.75 13.06H405.08H405.06Z" fill="#0C0C0D"/>
<path d="M657.91 123.84H643.05L641.82 115.96C641 110.72 639.76 105.56 638.11 100.53L635.84 93.63H586.51L584.31 100.13C582.51 105.43 581.18 110.87 580.32 116.4L579.16 123.84H565.89L602.42 15.17C603.52 11.91 603.44 8.37 602.21 5.16L601.09 2.25H617.39L657.92 123.84H657.91ZM632.24 83.01L611.18 19.47L589.98 83.01H632.24Z" fill="#0C0C0D"/>
<path d="M670.45 101.3V24.79C670.45 20.88 670.21 16.97 669.74 13.08L668.43 2.25H683.57L682.31 13.49C681.9 17.1 681.7 20.74 681.7 24.37V101.71C681.7 105.35 681.9 108.98 682.31 112.59L683.57 123.83H668.43L669.74 113C670.21 109.12 670.45 105.21 670.45 101.29V101.3Z" fill="#0C0C0D"/>
<path d="M515 64.74C515 64.74 515 64.78 515 64.8C514.96 64.78 514.93 64.76 514.89 64.74H515Z" fill="#D1132F"/>
<path d="M470.42 27.86C470.42 27.65 470.99 28.29 471.91 28.68C472.37 28.8 472.93 29.09 473.55 29.71C474.17 30.19 474.85 30.68 475.58 31.25C476.3 32.04 477.07 32.17 477.85 33.23C478.24 33.83 478.63 33.77 479.03 34.41C479.42 35.18 479.82 35.54 480.21 35.73C480.6 36 480.99 36.4 481.37 37.12C481.75 37.46 482.13 38.05 482.5 38.72C482.87 39.29 483.23 39.61 483.57 40.46C483.92 40.9 484.25 41.75 484.57 42.29C484.18 43.27 483.75 43.84 483.31 44.96C482.88 45.74 482.45 46.57 482.06 47.47C481.29 48.65 480.72 49.88 480.72 50.07C480.72 50.26 480.32 50.02 479.73 49.65C479.14 49.3 478.35 49.12 477.56 48.54C476.77 47.87 475.98 47.73 475.39 47.49C474.8 47.23 474.4 46.89 474.4 47.01C474.4 47.08 474.29 46.49 474.01 45.48C473.87 44.95 473.68 44.18 473.45 43.68C473.21 42.98 472.93 42.61 472.58 41.35C472.35 40.88 472.09 40.3 471.81 39.64C471.53 38.98 471.21 38.27 470.87 37.5C470.53 36.93 470.15 36.21 469.74 35.31C469.33 34.27 468.89 33.93 468.41 33.03C467.93 32.22 467.42 31.47 466.87 30.62C466.32 29.99 465.73 29.01 465.1 28.13C465.1 28.08 466.43 28.2 467.75 27.98C469.08 28.05 470.4 27.81 470.4 27.83L470.42 27.86Z" fill="#D1132F"/>
<path d="M555.44 53.27C555.37 50.86 555.29 52.15 555.19 50.33C555.09 45 554.13 42.46 553.94 41.77C553.75 40.54 553.55 39.47 553.33 39.11C553.11 38.19 552.08 35.2 551.78 33.65C551.51 33.46 551.23 32.27 550.93 31.23C550.63 29.93 550.31 29.27 549.98 28.89C549.65 26.44 546.93 23.14 546.49 22.07C546.05 21.58 545.59 20.99 545.11 19.96C544.63 19.26 544.13 18.55 543.62 17.86C543.11 17.17 542.57 16.52 542.01 15.93C540.9 14.76 539.71 13.45 538.43 12.29C537.13 11.2 535.78 9.83998 534.38 9.08998C532.98 8.13998 531.52 7.54998 530.03 6.42998C528.53 5.66998 527 4.96998 525.43 4.26998C523.86 3.34998 522.25 2.96998 520.62 2.58998C518.99 2.15998 517.33 1.53998 515.65 1.35998C513.97 0.989976 512.27 0.849976 510.57 0.539976C508.99 0.319976 507.42 -0.0100243 505.83 0.129976C504.25 -0.160024 502.67 0.219976 501.08 0.0099757C501.08 0.169976 501 0.339976 501 0.0099757C500.93 -2.42954e-05 500.86 0.159976 500.78 0.0099757C498.91 0.0899757 497.04 0.0499757 495.17 0.279976C493.3 0.659976 491.43 0.409976 489.58 0.899976C487.73 1.02998 485.89 1.43998 484.07 1.93998C483.16 2.16998 482.26 2.43998 481.37 2.70998C480.48 2.97998 479.59 3.23998 478.71 3.45998C477.83 3.19998 474.4 4.51998 473.56 5.52998C472.72 6.01998 469.47 6.73998 468.68 8.21998C467.89 8.63998 467.12 8.83998 466.36 9.81998C465.6 10.62 464.86 10.99 464.13 11.6C463.41 12.28 462.71 12.61 462.05 13.53C461.38 14.14 460.74 14.9 460.13 15.61C459.52 16.06 458.93 16.87 458.36 17.67C457.8 18.13 457.26 19.2 456.74 20.12C456.22 21.09 455.73 22.05 455.26 22.58C454.79 23.16 454.34 24.76 453.92 25.04C453.49 25.87 453.09 26.27 452.71 27.53C452.33 28.45 450.95 31.45 450.65 32.94C450.34 34.32 450.06 34.78 449.79 35.73C449.52 36.12 449.27 38.21 449.03 38.51C448.79 39.51 448.57 39.83 448.37 41.31C448.17 42.76 447.98 43.12 447.8 43.96C447.63 44.64 447.47 45.43 447.32 46.91C447.17 48.04 447.04 49.32 446.92 49.75C446.8 51.18 446.69 52.44 446.59 52.45C446.5 52.68 446.43 54.82 446.36 54.87C446.3 55.92 446.24 57.95 446.2 57.45C446.16 58.27 446.13 60.11 446.11 59.98C446.09 60.79 446.08 61.37 446.09 62.46C446.09 63.82 446.11 64.65 446.13 65.1C446.15 67.18 446.19 67.05 446.23 67.46C446.28 67.17 446.33 68.81 446.4 70C446.47 71.05 446.54 71.4 446.62 72.46C446.7 73.68 446.8 73.69 446.9 75.03C447 76.73 447.11 75.6 447.24 77.44C447.36 78.17 447.89 80.42 448.04 82.27C448.19 84.43 448.35 83.52 448.52 84.71C448.69 85.56 450.12 91.63 450.36 91.83C450.6 92.38 450.85 93.44 451.12 94.17C451.39 94.85 451.67 95.76 451.97 96.47C452.27 97.01 452.58 98.2 452.9 98.74C453.23 99.41 453.57 100.21 453.93 100.96C454.78 102.7 455.71 104.16 456.73 105.91C457.75 107.38 458.86 109.07 460.04 110.38C461.22 111.58 462.49 112.87 463.82 114.36C465.15 115.61 466.56 116.81 468.03 117.82C469.5 118.82 471.04 119.93 472.63 120.74C474.23 121.76 475.88 122.41 477.59 123.1C479.3 123.8 481.06 124.21 482.86 124.88C483.76 125.24 484.68 125.38 485.6 125.51C486.52 125.64 487.46 126.45 488.41 126.05C489.34 125.51 490.28 126.16 491.22 126.51C492.16 126.58 501.74 126.85 502.7 126.81C503.66 126.77 504.63 126.71 505.6 126.65C507.53 126.45 509.46 126.44 511.37 125.95C513.28 125.46 515.18 124.87 517.06 124.79C518 124.49 518.93 124.29 519.85 124.06C520.77 123.83 521.69 123.57 522.6 123.15C523.51 122.87 524.41 122.63 525.3 122.07C526.19 121.56 527.07 121.2 527.94 121.03C528.81 120.87 529.67 120.21 530.51 119.76C531.35 119.4 532.19 119.06 533.01 118.41C533.78 117.97 534.54 117.36 535.29 116.98C536.04 116.43 536.77 115.81 537.48 115.43C538.19 114.87 538.89 114.23 539.57 113.62C540.25 113.31 540.91 112.57 541.55 111.94C542.19 109.63 544.59 109.06 545.14 107.97C545.7 107.75 547.73 105.67 548.19 103.55C548.68 102.37 549.14 102.11 549.56 101.29C549.98 100.47 550.38 99.56 550.75 98.45C551.49 96.65 552.11 95.18 552.64 93.1C552.91 92.18 553.15 91.27 553.37 90.36C553.59 89.45 553.79 88.52 553.97 87.58C554.15 85.94 554.31 85.56 554.46 84.72C554.61 83.75 554.73 82.79 554.85 81.95C554.95 79.91 555.05 79.61 555.14 79.23C555.23 78.44 555.51 76.65 555.56 74.29C555.61 71.06 555.66 72.67 555.7 71.62C555.74 71.56 555.77 71.1 555.79 69.09C555.81 69.84 555.83 63.29 555.84 66.41C555.84 64.91 555.85 63.11 555.84 63.67C555.84 64.21 555.82 63.55 555.81 61.21C555.79 60.83 555.77 59.92 555.74 58.65C555.71 57.73 555.52 55.85 555.45 53.32L555.44 53.27ZM549 67.16C548.98 66.05 548.96 67.08 548.93 69.84C548.9 66.52 548.87 70.29 548.83 72.81C548.79 76.09 548.74 73.5 548.68 75.56C548.62 76.43 548.55 76.51 548.46 78.53C548.38 78.81 548.28 80.31 548.16 81.3C548.05 82.34 547.91 82.79 547.76 84.23C547.61 84.91 547.44 85.93 547.25 87.24C547.06 88.18 546.84 89.06 546.6 89.82C546.12 91.88 545.54 93.24 544.84 95.19C544.49 96.08 544.11 96.96 543.69 97.81C543.27 98.35 542.83 98.07 542.34 100.25C541.85 101.97 541.33 101.03 540.77 102.57C540.21 103.06 535.51 108.67 535.05 108.7C534.59 109.03 534.11 109.37 533.63 109.88C532.67 110.78 531.67 111.51 530.65 111.95C529.88 112.41 529.1 112.77 528.3 113.38C527.5 113.8 526.69 114.2 525.86 114.57C525.03 115.4 524.2 115.69 523.35 115.8C522.5 115.99 521.64 116.54 520.78 116.63C519.91 116.93 519.04 117.22 518.16 117.48C517.28 117.74 516.39 117.98 515.5 118.17C513.71 118.81 511.91 118.8 510.11 119.24C508.31 119.75 506.5 119.97 504.71 119.87C502.69 120.04 500.66 120.01 498.63 120.09C496.6 120.05 494.58 119.75 492.58 119.76C490.58 119.48 488.59 119.35 486.65 118.8C484.7 118.51 482.8 117.88 480.94 117.13C479.08 116.44 477.28 116.01 475.55 114.68C473.82 113.82 472.15 112.4 470.57 111.38C468.99 110.04 467.5 108.76 466.1 107.15C464.89 105.85 463.79 104.96 462.79 102.83C461.78 101 460.87 99.72 460.05 98.12C459.64 97.29 459.25 96.44 458.88 95.59C458.51 94.74 458.16 93.99 457.84 93.09C457.51 92.26 457.2 91.51 456.91 90.48C456.62 90.26 456.35 89.27 456.1 87.83C455.85 86.25 455.61 85.07 455.39 85.11C455.17 85.05 454.97 83.53 454.78 82.42C454.59 79.66 454.42 80.12 454.27 79.51C454.11 77.9 453.09 69.66 453.04 68.7C452.98 67.35 452.94 67.43 452.9 66.09C452.86 65.8 452.84 65.01 452.83 63.14C452.82 62.6 452.83 61.37 452.84 60.39C452.86 59.82 452.89 58.27 452.94 57.58C452.99 55.77 453.3 52.81 453.41 51.8C453.52 50.6 454.09 46.84 454.26 46.05C454.43 44.77 454.63 43.97 454.83 43.45C455.03 42.84 455.25 41.52 455.48 40.73C455.71 39.77 455.95 38.75 456.21 38.02C456.47 37.03 456.75 35.87 457.04 35.38C457.33 34.77 457.65 32.96 457.98 32.66C458.31 32.22 458.67 30.77 459.05 30C459.43 29.29 459.83 28.12 460.25 27.51C460.68 26.61 461.13 25.8 461.61 25.03C462.09 24.27 462.59 23.36 463.13 22.7C463.67 21.82 464.25 21.16 464.84 20.41C465.44 19.63 466.06 18.95 466.71 18.42C467.36 17.75 468.03 17.25 468.73 16.55C469.43 15.84 474.84 12.11 478.01 11.02C478.85 10.91 484.96 8.47998 485.86 8.36998C487.66 8.03998 489.48 7.36998 491.32 7.38998C492.93 7.07998 494.54 6.66998 496.16 6.92998C497.78 6.88998 499.4 6.99998 501.02 6.73998C501.02 6.68998 501.02 6.85998 501.02 6.73998C502.99 6.92998 504.96 6.86998 506.93 6.93998C508.9 7.16998 510.86 7.25998 512.8 7.63998C514.74 7.77998 516.66 8.33998 518.54 8.93998C520.42 9.45998 522.27 9.99998 524.07 10.93C525.87 11.69 527.62 12.65 529.3 13.72C530.9 15.02 532.38 15.68 533.76 17.1C535.14 18.19 536.4 19.62 537.57 21.08C538.15 21.68 538.71 22.39 539.25 23.15C539.78 25.01 540.29 24.27 540.78 25.57C541.27 27.39 541.73 26.97 542.17 28.11C542.61 28.63 543.02 30.11 543.42 30.5C543.79 32.04 544.14 29.69 544.47 32.77C544.8 33.76 545.94 36.68 546.19 37.9C546.44 37.91 546.66 40.43 546.87 40.52C547.08 41.85 547.27 42.12 547.44 43.1C547.61 44.61 547.77 45.51 547.91 45.72C548.05 45.8 548.18 45.65 548.29 48.36C548.4 53.28 548.92 55.92 548.96 56.36C549 56.7 549.03 56.74 549.05 58.95C549.06 58.23 549.07 60.36 549.07 58.94C549.07 59.13 549.08 61.17 549.08 61.76C549.08 63.64 549.08 64.93 549.08 64.4C549.08 62.87 549.06 67.9 549.04 67.18L549 67.16Z" fill="#D1132F"/>
<path d="M532.14 46.11C532.14 46.11 531.23 45.57 530 44.58C529.38 44.21 528.68 43.53 527.97 42.98C527.26 42.35 526.54 41.87 525.89 41.16C525.19 41.91 524.55 42.41 523.94 42.97C523.33 43.33 522.74 43.89 522.15 44.3C521.56 44.84 520.96 44.86 520.33 45.02C519.7 45.12 519.03 45.31 518.29 45.23C518.29 45.28 517.46 45.36 516.62 45.38C515.78 45.4 514.95 45.29 514.95 45.19C514.93 44.52 514.92 43.98 514.9 43.2C514.88 42.63 514.86 41.81 514.84 41.17C514.82 40.72 514.8 40.04 514.77 39.19C514.75 38.38 514.72 37.67 514.7 37.23C515.31 37.4 515.93 37.38 516.55 37.32C517.17 37.7 517.78 37.38 518.39 37.36C519 37.48 519.61 37.19 520.21 37.37C520.81 37.71 521.41 37.21 521.99 37.49C522.58 37.43 523.16 37.49 523.72 37.54C524.29 37.65 524.84 37.53 525.39 37.58C526.47 37.81 527.5 37.7 528.45 37.72C529.4 37.83 530.28 37.8 531.05 37.78C531.82 37.76 532.51 37.75 533.07 37.89C534.19 38.12 534.83 37.72 534.83 37.96C534.83 37.92 534.16 37.21 533.28 35.38C532.84 34.72 532.34 33.98 531.84 33.04C531.34 32.32 530.84 31.2 530.4 30.59C529.51 29.34 528.85 27.83 528.85 28.01C528.85 28.49 527.96 28.58 526.4 29.74C525.62 29.91 524.68 31.11 523.6 30.93C523.06 31.3 522.49 31.39 521.89 31.39C521.29 31.45 520.65 31.53 519.99 31.5C519.51 31.38 518.86 31.79 518.08 31.5C517.3 31.37 516.37 31.44 515.34 31.45C515.52 30.8 515.74 30.18 515.99 29.73C515.99 29.94 516.43 28.96 516.87 27.76C517.31 26.77 517.75 25.64 517.75 25.79C517.75 25.58 516.79 25.23 515.34 24.72C514.62 24.64 513.77 24.13 512.87 23.81C511.97 23.32 511 23.05 510.04 22.38C509.08 21.83 508.11 21.67 507.21 21.14C506.31 20.95 505.46 20.12 504.74 20.04C503.29 19.27 502.33 19.27 502.33 18.97C502.33 19.12 502.51 19.5 502.79 20.46C502.93 21.02 503.11 21.53 503.3 22.11C503.49 23.28 503.71 23.68 503.93 24.64C504.16 25.29 504.4 26.39 504.64 27.48C504.76 27.9 504.89 28.51 505.01 29.16C505.13 29.81 505.26 30.51 505.38 31.1C504.48 31.12 503.56 31.03 502.64 30.92C501.71 30.47 500.78 30.89 499.84 30.82C498.9 30.92 497.96 30.93 497.02 30.65C496.08 30.66 495.15 30.68 494.23 30.46C493.31 30.42 492.39 30.35 491.5 30.28C490.6 30.31 489.73 30.09 488.87 30.04C487.16 29.61 485.54 29.79 484.07 29.53C483.34 29.49 482.64 29.44 481.98 29.35C481.33 29.31 480.72 29.07 480.15 28.95C480.15 29.07 480.97 29.71 482.05 31.09C482.59 31.49 483.21 31.97 483.82 32.91C484.43 33.59 485.04 34.36 485.59 35.08C486.68 36.47 487.49 37.06 487.49 37.22C487.49 37.2 487.91 37.17 488.77 37.02C489.2 36.95 489.74 36.92 490.4 36.85C491.05 36.94 491.82 36.72 492.71 36.7C493.59 36.54 494.59 36.66 495.71 36.59C496.83 36.6 498.06 36.65 499.41 36.68C500.24 36.7 501.27 36.89 502.45 36.78C503.04 36.8 503.67 36.64 504.33 36.88C504.99 37.05 505.68 37.01 506.39 36.91C506.49 37.45 506.58 38.3 506.68 38.76C506.77 39.18 506.86 40.25 506.95 40.87C507.03 41.73 507.12 42.13 507.19 43.05C507.27 43.72 507.34 44.22 507.4 45.1C507.4 45.03 506.23 44.95 504.67 45.07C503.89 45.24 503.01 44.95 502.14 45.01C501.26 44.85 500.39 45.02 499.61 45.01C498.05 44.92 496.88 44.92 496.88 44.98C496.88 45.02 496.88 43.18 496.88 43.23C496.88 43.2 495.11 42.49 493.34 41.51C491.57 40.99 489.8 39.89 489.8 39.79C489.8 39.79 489.81 40.61 489.84 42.1C489.85 42.8 489.87 43.72 489.88 44.72C489.9 44.31 489.91 46.12 489.93 47.87C489.93 46.96 489.95 47.22 489.96 49.64C489.96 46.4 489.98 52.08 489.99 51.44C490 52.97 490.01 54.79 490.02 53.43C490.03 54 490.04 58.19 490.05 55.39C490.06 57.21 490.07 58.36 490.08 57.38C490.09 57.54 490.1 56.45 490.11 59.25C490.12 58.89 490.13 60.33 490.14 61.11C490.14 62.03 490.16 62.16 490.17 62.89C490.19 64.1 490.21 65.14 490.22 66.08C490.24 67.11 490.25 67.86 490.26 68.66C490.28 69.34 490.3 71.18 490.3 70.97C490.3 70.7 490.71 71.13 491.33 70.47C491.95 70.16 492.77 69.87 493.59 69.26C494.41 69.14 495.24 68.24 495.85 68.13C496.47 67.52 496.88 67.6 496.88 67.55C496.88 68.19 496.88 64.85 496.88 64.86C496.88 64.84 498.13 64.61 499.39 64.84C500.64 65.01 501.9 64.77 501.9 64.82C501.47 65.53 501.03 66.19 500.61 66.81C500.18 67.36 499.76 67.8 499.33 68.58C498.91 69.31 498.49 69.49 498.08 70.3C497.67 70.67 497.26 70.81 496.86 71.85C496.32 71.71 495.8 72.75 495.29 73.83C494.78 74.31 494.28 74.31 493.79 75.48C493.3 76.49 492.83 76.54 492.38 76.83C491.92 77.29 491.49 77.78 491.07 78.36C490.23 78.9 489.46 79.61 488.78 80.33C488.1 81.1 487.51 81.51 487.03 81.97C486.06 82.95 485.51 82.96 485.51 83.08C485.51 82.78 486.66 83.67 487.81 84.21C488.96 85.15 490.11 85.43 490.11 85.34C490.11 85.13 490.85 84.57 492.04 84.16C492.63 83.56 493.34 83.25 494.12 82.84C494.9 82.31 495.76 81.68 496.66 81.01C497.11 80.65 497.57 80.29 498.03 79.93C498.49 79.57 498.96 79.2 499.43 78.83C500.37 78.13 501.31 77.22 502.23 76.46C503.14 75.49 504.02 74.62 504.83 73.81C505.64 72.89 506.38 71.96 507.01 71.09C506.81 72.8 506.58 74.41 506.33 75.92C506.09 77.75 505.82 79.35 505.56 80.09C505.43 80.66 505.29 81.23 505.16 81.81C505.03 82.39 504.89 83.06 504.75 83.5C504.48 84.62 504.21 85.81 503.96 86.66C503.71 87.43 503.47 88.66 503.25 88.93C503.03 89.08 502.83 90.42 502.67 90.68C502.34 91.31 502.14 91.72 502.14 92.05C502.14 91.59 503.31 91.89 504.86 91.3C505.64 91.08 506.51 90.91 507.39 90.7C508.27 90.53 509.14 90.48 509.92 89.91C511.48 88.94 512.64 90.1 512.64 89.16C512.77 87.62 512.9 87.47 513.02 87.52C513.14 86.96 513.26 86.4 513.37 85.86C513.59 84.7 513.78 83.92 513.96 81.8C514.13 80.48 514.28 78.58 514.41 77.09C514.54 75.67 514.65 73.8 514.74 71.85C515.59 72.46 516.66 73.53 517.83 74.75C519 75.87 520.25 77.44 521.47 79.01C522.69 80.61 523.86 82.34 524.86 84.47C525.93 84.52 527.54 84.55 528.89 84.74C530.24 84.99 531.32 84.95 531.32 84.93C531.32 84.97 531.44 83.08 531.55 81.21C531.67 79.25 531.78 77.44 531.78 77.49C531.78 77.59 531.07 77.2 529.93 75.97C529.36 75.76 528.68 75.06 527.92 74.37C527.16 73.87 526.33 72.9 525.45 72.38C524.57 71.44 523.65 71.08 522.72 70.3C521.79 69.25 520.85 68.95 519.93 68.17C519.01 67.59 518.12 66.84 517.29 66.28C516.46 65.54 515.68 65 514.99 64.78C514.95 64.84 514.92 64.7 514.88 64.72C514.88 64.66 514.99 64.63 514.99 64.72C514.99 64.6 515.51 64.61 516.29 64.71C517.07 64.72 518.11 64.81 519.16 64.69C520.2 64.67 521.24 64.52 522.03 64.66C522.81 64.71 523.33 64.55 523.33 64.66C523.33 64.85 523.32 65.7 523.31 66.57C523.3 67.12 523.29 68.51 523.29 68.48C523.29 68.58 523.7 68.45 524.31 68.1C524.92 68.03 525.74 67.5 526.56 67.04C527.38 66.68 528.19 66.34 528.81 66C529.42 65.85 529.83 65.65 529.83 65.61C529.83 65.84 529.81 64.07 529.78 62.56C529.77 61.4 529.75 60.5 529.73 59.71C529.71 58.63 529.7 57.55 529.68 56.9C529.65 55.43 529.63 54.06 529.63 53.85C529.61 53.09 529.71 52.04 529.92 51.16C530.12 50.35 530.44 49.5 530.85 48.63C530.85 48.51 532.15 46.23 532.15 46.1L532.14 46.11ZM496.91 59.49V50.8C496.91 51.01 498.12 50.75 499.74 50.73C500.55 50.62 501.46 50.31 502.36 50.67C503.27 50.33 504.18 50.74 504.98 50.61C506.6 50.73 507.81 50.66 507.81 50.54C507.87 51.68 507.91 52.99 507.92 54.16C507.94 55.47 507.94 56.84 507.92 57.87C507.92 58.18 507.9 58.7 507.89 59.2C507.89 59.37 506.67 59.44 505.04 59.27C504.23 59.27 503.31 59.48 502.4 59.35C501.48 59.49 500.57 59.5 499.76 59.41C498.13 59.38 496.91 59.09 496.91 59.48V59.49ZM523.41 58.8C523.41 58.31 522.89 58.5 522.11 58.82C521.33 58.84 520.29 58.49 519.25 58.91C518.21 59.26 517.17 58.95 516.39 58.98C515.61 59.06 515.09 58.96 515.09 59.01C515.09 58.44 515.09 57.9 515.09 56.87C515.09 56.13 515.09 55.87 515.09 54.71C515.09 54.04 515.09 52.72 515.08 52.54C515.08 52.11 515.07 51.27 515.06 50.37C515.06 50.47 515.59 50.43 516.38 50.31C517.17 50.17 518.23 50.26 519.29 50.27C520.35 49.81 521.41 50.23 522.2 50.2C522.99 50.38 523.52 50.57 523.52 50.17C523.52 50.06 523.52 50.75 523.5 51.54C523.49 52.5 523.48 53.66 523.46 54.47C523.45 55.29 523.43 56.39 523.42 57.35C523.41 58.15 523.4 58.46 523.4 58.78L523.41 58.8Z" fill="#D1132F"/>
<path d="M535.24 88.39C535.24 88.25 535.02 88.8 534.67 89.41C534.31 90.04 533.81 91.12 533.23 92.25C532.94 92.42 532.64 93.32 532.32 93.92C532.01 94.36 531.68 95.28 531.36 95.83C531.04 96.47 530.71 97.13 530.4 97.69C530.09 98.49 529.78 98.6 529.49 99.41C528.92 100.04 528.41 101.73 528.05 102.17C527.69 102.72 527.48 103.23 527.48 103.27C527.48 103.18 526.72 103.81 525.38 104.04C524.71 104.57 523.89 104.69 522.95 104.8C522.01 105.06 520.94 105.36 519.78 105.63C519.2 105.7 518.59 105.22 517.96 105.94C517.33 105.94 516.67 106.14 516 106.36C515.33 106.84 514.63 106.67 513.92 106.76C513.21 106.85 512.48 106.9 511.74 106.93C511.18 106.81 510.62 106.95 510.05 107.01C509.48 107.25 508.9 107.11 508.31 107.12C507.73 107.05 507.14 107.04 506.54 107.12C505.95 107.08 505.35 107.16 504.74 107.05C503.53 106.88 502.31 106.72 501.09 106.52C499.87 106.32 498.64 106.1 497.42 105.93C496.81 105.88 496.2 105.6 495.59 105.4C494.98 105.15 494.38 105.1 493.77 104.75C493.17 104.6 492.57 104.18 491.98 103.97C491.39 103.71 490.8 103.43 490.21 103.09C489.63 102.61 489.05 102.21 488.48 102.03C487.91 101.55 487.35 101.36 486.79 100.94C486.24 100.84 485.69 100.28 485.15 99.91C484.61 99.75 484.09 98.9 483.57 98.07C483.05 97.4 482.55 97.04 482.05 96.32C481.56 95.71 481.07 95.1 480.6 94.6C479.66 93.47 478.77 91.77 477.95 90.41C477.95 90.41 477.41 90.7 476.66 91.49C476.17 92.01 475.58 92.71 475.01 93.77C474.73 94.38 474.44 94.98 474.18 95.7C473.91 96.39 473.67 97.13 473.45 97.72C473.23 98.4 473.04 99.15 472.89 100.38C472.74 101.48 472.63 102.63 472.58 103.7C471.68 103.31 470.84 101.97 470.07 101.63C469.3 101.28 468.61 100.01 467.99 99.83C467.37 99.29 466.83 98.83 466.37 98.15C465.91 97.6 465.52 97.04 465.23 96.45C464.64 95.15 464.38 93.83 464.51 92.45C465.22 91.32 466.44 90.04 467.76 88.57C468.42 88.01 469.1 87.51 469.75 87.03C470.4 86.73 471.02 86.21 471.56 85.69C472.64 85.03 473.39 84.52 473.39 84.57C473.39 84.78 473.24 84 473.06 82.61C472.97 81.84 472.87 81.36 472.78 80.1C472.69 80.85 472.61 77.8 472.55 77.48C472.52 78.04 472.5 72.9 472.48 75.71C472.46 75.54 472.45 72.5 472.45 73.93C472.45 77.81 472.45 72.9 472.48 72.09C472.5 66.88 472.53 72.77 472.58 70.27C472.62 71.24 472.68 66.87 472.75 68.27C472.82 66.87 472.91 66.54 473.01 66.23C473.11 66.3 473.24 64.71 473.37 64.16C473.51 63.28 473.67 62.85 473.85 62.09C473.85 62.28 473.27 61.94 472.4 61.94C471.53 61.72 470.37 61.87 469.21 61.72C468.05 61.48 466.89 61.57 466.02 61.47C465.15 61.76 464.57 61.33 464.57 61.35C464.57 61 464.06 60.3 463.39 58.94C463.05 58.03 462.67 57.41 462.29 56.7C461.91 56.1 461.53 54.96 461.19 54.46C460.51 53.24 460.01 52.08 460.01 52.05C460.01 52.05 461.09 52.57 462.77 52.84C463.61 53.42 464.59 53.31 465.67 53.63C466.21 53.65 466.77 54.06 467.34 54.14C467.91 54.34 468.5 54.47 469.09 54.51C469.68 54.69 470.28 54.81 470.88 54.93C471.48 55.05 472.08 55.17 472.67 55.37C473.26 55.54 473.84 55.67 474.4 55.77C474.96 55.87 475.51 56.05 476.04 56.04C476.38 55.14 476.75 54.69 477.15 53.96C477.55 53.17 477.99 52.73 478.46 51.97C478.46 52.04 479.32 52.61 480.47 53.73C481.05 54.32 481.69 54.92 482.34 55.36C482.99 56.09 483.64 56.55 484.21 57.01C485.36 57.85 486.22 57.78 486.22 58.77C486.22 58.37 486 59.7 485.66 60.11C485.49 60.37 485.29 60.96 485.06 61.66C484.84 62.38 484.6 62.89 484.35 63.85C484.1 64.8 483.84 65.66 483.59 66.53C483.34 67.84 483.09 67.56 482.85 69.57C482.73 70.32 482.62 70.21 482.51 71.18C482.4 71.89 482.3 72.05 482.2 73.05C482.1 73.36 482.02 74.84 481.94 74.92C481.86 76.33 481.79 76.85 481.73 76.86C481.61 78.6 481.52 79.72 481.48 80.95C481.44 82.24 481.46 83.8 481.54 85.28C481.58 86.07 481.75 86.83 482.05 87.55C482.35 88.27 482.77 88.89 483.31 89.5C483.74 89.94 484.19 90.37 484.67 90.92C485.15 91.15 485.65 91.59 486.17 91.9C486.69 92.07 486.79 92.57 487.53 93.04C488.09 93.74 488.4 93.8 489 94.02C489.6 94.15 489.76 94.28 490.39 94.66C491.02 94.89 492.1 95.28 492.76 95.41C493.75 95.53 494.24 95.51 495.28 95.94C496.32 96.07 497.48 96.27 498.55 96.32C499.62 96.55 500.76 96.59 501.86 96.55C502.96 96.55 504.4 96.53 505.51 96.51C506.62 96.23 508.32 96.22 509.42 96.13C509.97 96.13 522.41 94.03 523 93.38C524.03 93.14 526.04 92.4 526.95 92.1C527.86 91.62 529.3 90.97 530.07 90.63C530.84 90.54 531.7 89.71 532.31 89.46C532.92 89.44 533.45 88.88 533.88 88.88C534.74 88.29 535.21 88.42 535.21 88.37L535.24 88.39Z" fill="#D1132F"/>
</g>
<defs>
<clipPath id="clip0_188_190">
<rect width="683.57" height="126.78" fill="white"/>
</clipPath>
</defs>
</svg>
