<svg width="915" height="152" viewBox="0 0 915 152" fill="none" xmlns="http://www.w3.org/2000/svg">
<g clip-path="url(#clip0_188_105)">
<path d="M226.35 123.67V30.84C226.35 26.09 226.06 21.35 225.49 16.64L223.9 3.5H274.65C303 3.5 315.6 18.83 315.6 49.71C315.6 80.59 302.65 95.92 273.42 95.92H239.99V119.66C239.99 127.07 240.69 134.47 242.07 141.75L243.84 151.02H223.89L225.48 137.88C226.05 133.17 226.34 128.42 226.34 123.68L226.35 123.67ZM271.68 83.26C292.85 83.26 301.96 72.59 301.96 50.15C301.96 27.71 293.21 16.16 272.91 16.16H239.83V83.26H271.68Z" fill="#FFFDFA"/>
<path d="M412.9 151.02H394.87L393.38 141.46C392.39 135.1 390.88 128.84 388.87 122.73L386.12 114.36H326.27L323.6 122.25C321.42 128.68 319.8 135.28 318.76 141.99L317.35 151.02H301.25L345.57 19.16C346.9 15.2 346.81 10.91 345.31 7.01L343.95 3.48H363.73L412.91 151.01L412.9 151.02ZM381.75 101.47L356.2 24.37L330.47 101.47H381.75Z" fill="#FFFDFA"/>
<path d="M574.76 87.25C596.28 84.14 608.01 69.04 608.01 46.15C608.01 18.82 594.88 3.48999 567.93 3.48999H516.13L517.72 16.63C518.3 21.35 518.58 26.09 518.58 30.84V123.67C518.58 128.42 518.3 133.16 517.72 137.88L516.92 144.51L480.46 87.25C501.98 84.14 513.71 69.04 513.71 46.15C513.71 18.82 500.58 3.48999 473.63 3.48999H421.83L423.43 16.63C424 21.35 424.28 26.09 424.28 30.84V123.67C424.28 128.42 424 133.16 423.43 137.88L421.83 151.02H440.91L439.19 139.35C438.35 133.66 437.93 127.91 437.93 122.16V89.7H466.11L486.27 121.73C491.82 130.55 496.18 140.07 499.23 150.04L499.53 151.02H535.21L533.49 139.35C532.65 133.66 532.23 127.91 532.23 122.16V89.7H560.41L580.57 121.73C586.12 130.55 590.48 140.07 593.53 150.04L593.83 151.02H615.36L574.76 87.25ZM437.58 76.59V15.71H471.88C490.78 15.71 500.06 26.6 500.06 46.15C500.06 65.7 488.33 76.59 469.43 76.59H437.58ZM531.88 76.59V15.71H566.18C585.08 15.71 594.36 26.6 594.36 46.15C594.36 65.7 582.63 76.59 563.73 76.59H531.88Z" fill="#FFFDFA"/>
<path d="M634.61 123.67V30.84C634.61 26.09 634.32 21.35 633.75 16.64L632.16 3.5H650.54L649.01 17.14C648.52 21.52 648.27 25.93 648.27 30.34V124.19C648.27 128.6 648.52 133.01 649.01 137.39L650.54 151.03H632.16L633.75 137.89C634.32 133.18 634.61 128.43 634.61 123.69V123.67Z" fill="#FFFDFA"/>
<path d="M715.39 16.6V119.66C715.39 127.07 716.09 134.47 717.47 141.75L719.24 151.02H697.89L699.66 141.74C701.05 134.46 701.74 127.07 701.74 119.66V16.6H693.65C682.53 16.6 671.47 18.17 660.79 21.27L662.89 3.5H754.24L756.34 21.27C745.66 18.17 734.6 16.6 723.48 16.6H715.39Z" fill="#FFFDFA"/>
<path d="M742.14 78.36L756.49 61.03L771.02 78.36L756.49 95.25L742.14 78.36Z" fill="#FFFDFA"/>
<path d="M882.97 151.02H864.94L863.45 141.46C862.46 135.1 860.95 128.84 858.94 122.73L856.19 114.36H796.34L793.67 122.25C791.49 128.68 789.87 135.28 788.83 141.99L787.42 151.02H771.32L815.64 19.16C816.97 15.2 816.88 10.91 815.38 7.01L814.02 3.48H833.8L882.98 151.01L882.97 151.02ZM851.82 101.47L826.27 24.37L800.54 101.47H851.82Z" fill="#FFFDFA"/>
<path d="M898.18 123.67V30.84C898.18 26.09 897.89 21.35 897.32 16.64L895.73 3.5H914.11L912.58 17.14C912.09 21.52 911.84 25.93 911.84 30.34V124.19C911.84 128.6 912.09 133.01 912.58 137.39L914.11 151.03H895.73L897.32 137.89C897.89 133.18 898.18 128.43 898.18 123.69V123.67Z" fill="#FFFDFA"/>
<path d="M94.3 78.49C94.3 78.49 94.3 78.57 94.3 78.6C94.23 78.56 94.18 78.53 94.12 78.49H94.31H94.3Z" fill="#FFFDFA"/>
<path d="M17.84 15.24C17.84 14.88 18.81 15.97 20.4 16.65C21.2 16.85 22.15 17.35 23.21 18.42C24.27 19.24 25.45 20.09 26.69 21.06C27.93 22.42 29.24 22.64 30.58 24.46C31.25 25.48 31.92 25.39 32.6 26.49C33.28 27.82 33.95 28.43 34.62 28.76C35.29 29.22 35.96 29.91 36.62 31.15C37.28 31.73 37.92 32.75 38.55 33.9C39.18 34.89 39.8 35.43 40.39 36.89C40.98 37.64 41.56 39.1 42.11 40.03C41.44 41.71 40.7 42.69 39.95 44.61C39.21 45.95 38.47 47.38 37.81 48.92C36.5 50.95 35.52 53.06 35.52 53.37C35.52 53.68 34.84 53.29 33.83 52.64C32.81 52.04 31.46 51.74 30.1 50.74C28.74 49.59 27.39 49.35 26.37 48.93C25.35 48.48 24.68 47.9 24.68 48.11C24.68 48.23 24.49 47.21 24.01 45.48C23.77 44.57 23.45 43.24 23.05 42.4C22.65 41.2 22.16 40.56 21.56 38.4C21.17 37.6 20.73 36.6 20.24 35.48C19.75 34.36 19.21 33.13 18.62 31.81C18.03 30.82 17.39 29.59 16.69 28.05C15.99 26.26 15.23 25.68 14.42 24.14C13.6 22.75 12.72 21.46 11.78 20.01C10.84 18.93 9.83 17.24 8.75 15.75C8.75 15.66 11.02 15.87 13.3 15.5C15.57 15.62 17.85 15.2 17.85 15.25L17.84 15.24Z" fill="#FFFDFA"/>
<path d="M123.7 46.54C123.7 46.61 122.14 45.61 120.02 43.92C118.96 43.29 117.76 42.11 116.55 41.17C115.33 40.1 114.1 39.27 112.98 38.05C111.78 39.33 110.69 40.19 109.63 41.16C108.58 41.77 107.57 42.74 106.56 43.44C105.55 44.36 104.52 44.4 103.44 44.67C102.35 44.84 101.21 45.16 99.94 45.03C99.94 45.11 98.51 45.25 97.08 45.29C95.65 45.33 94.22 45.13 94.22 44.97C94.19 43.82 94.16 42.9 94.13 41.55C94.1 40.57 94.06 39.17 94.03 38.07C93.99 37.31 93.96 36.13 93.92 34.67C93.88 33.27 93.84 32.07 93.8 31.31C94.85 31.6 95.91 31.56 96.97 31.47C98.03 32.12 99.08 31.57 100.13 31.55C101.18 31.76 102.22 31.25 103.25 31.57C104.28 32.15 105.3 31.3 106.31 31.78C107.32 31.67 108.31 31.77 109.28 31.87C110.25 32.06 111.21 31.85 112.14 31.95C114 32.34 115.76 32.15 117.39 32.2C119.02 32.39 120.52 32.34 121.85 32.31C123.18 32.28 124.35 32.26 125.31 32.5C127.23 32.9 128.34 32.21 128.34 32.61C128.34 32.54 127.2 31.33 125.68 28.19C124.92 27.07 124.06 25.79 123.21 24.18C122.35 22.94 121.5 21.03 120.74 19.97C119.22 17.83 118.08 15.23 118.08 15.55C118.08 16.37 116.55 16.52 113.89 18.52C112.56 18.81 110.94 20.87 109.1 20.56C108.18 21.19 107.19 21.35 106.16 21.35C105.13 21.45 104.04 21.59 102.91 21.54C102.08 21.34 100.98 22.03 99.63 21.52C98.29 21.3 96.71 21.43 94.93 21.43C95.24 20.32 95.61 19.26 96.05 18.48C96.05 18.85 96.81 17.15 97.57 15.1C98.33 13.4 99.09 11.47 99.09 11.72C99.09 11.36 97.44 10.76 94.96 9.88999C93.72 9.75999 92.27 8.87999 90.72 8.31999C89.17 7.47999 87.52 7.00999 85.86 5.85999C84.21 4.91999 82.55 4.62999 81 3.72999C79.45 3.39999 78 1.97999 76.76 1.83999C74.28 0.519994 72.63 0.509995 72.63 0.00999451C72.63 0.269994 72.93 0.909994 73.43 2.56999C73.68 3.52999 73.97 4.39999 74.31 5.40999C74.64 7.40999 75.01 8.10999 75.4 9.74999C75.79 10.87 76.2 12.76 76.62 14.62C76.83 15.33 77.04 16.38 77.25 17.51C77.46 18.64 77.68 19.83 77.89 20.84C76.35 20.87 74.78 20.73 73.19 20.53C71.6 19.76 70 20.47 68.39 20.36C66.78 20.52 65.17 20.55 63.56 20.07C61.95 20.09 60.35 20.12 58.77 19.75C57.19 19.68 55.62 19.57 54.08 19.43C52.54 19.49 51.04 19.1 49.57 19.01C46.64 18.28 43.86 18.59 41.35 18.14C40.09 18.07 38.89 17.98 37.77 17.83C36.65 17.76 35.6 17.36 34.64 17.14C34.64 17.35 36.04 18.45 37.9 20.82C38.83 21.5 39.88 22.33 40.93 23.94C41.98 25.1 43.03 26.43 43.96 27.66C45.83 30.04 47.22 31.05 47.22 31.34C47.22 31.3 47.94 31.25 49.42 31C50.16 30.88 51.09 30.83 52.21 30.71C53.33 30.87 54.65 30.49 56.16 30.45C57.67 30.17 59.39 30.39 61.3 30.26C63.21 30.28 65.33 30.36 67.65 30.41C69.07 30.45 70.84 30.77 72.86 30.59C73.87 30.62 74.95 30.35 76.08 30.77C77.21 31.07 78.39 31 79.62 30.83C79.79 31.76 79.95 33.22 80.11 34.01C80.27 34.73 80.42 36.57 80.57 37.63C80.72 39.11 80.85 39.78 80.98 41.38C81.11 42.53 81.23 43.39 81.34 44.89C81.34 44.77 79.33 44.63 76.66 44.84C75.32 45.13 73.82 44.64 72.31 44.74C70.81 44.47 69.3 44.76 67.96 44.75C65.28 44.6 63.28 44.59 63.28 44.7C63.28 44.77 63.28 41.62 63.28 41.69C63.28 41.64 60.24 40.41 57.2 38.74C54.16 37.85 51.12 35.96 51.12 35.79C51.12 35.8 51.14 37.2 51.18 39.75C51.2 40.96 51.22 42.53 51.25 44.25C51.28 43.54 51.31 46.65 51.34 49.66C51.36 48.11 51.37 48.55 51.39 52.69C51.41 47.13 51.42 56.87 51.44 55.77C51.46 58.39 51.48 61.51 51.49 59.18C51.51 60.15 51.53 67.35 51.54 62.53C51.56 65.65 51.58 67.63 51.59 65.94C51.61 66.22 51.63 64.35 51.64 69.16C51.66 68.54 51.67 71.01 51.69 72.35C51.71 73.92 51.72 74.14 51.74 75.41C51.77 77.48 51.8 79.27 51.83 80.89C51.86 82.66 51.88 83.94 51.9 85.32C51.94 86.48 51.96 89.64 51.96 89.28C51.96 88.82 52.67 89.56 53.72 88.42C54.78 87.88 56.19 87.39 57.6 86.34C59.01 86.13 60.42 84.58 61.48 84.4C62.54 83.36 63.24 83.49 63.24 83.4C63.24 84.5 63.24 78.77 63.24 78.79C63.24 78.76 65.39 78.36 67.54 78.76C69.69 79.06 71.84 78.63 71.84 78.73C71.1 79.94 70.35 81.07 69.62 82.14C68.88 83.08 68.16 83.84 67.43 85.17C66.71 86.43 65.99 86.74 65.29 88.12C64.58 88.75 63.88 88.99 63.2 90.78C62.28 90.54 61.38 92.32 60.5 94.18C59.62 95 58.76 95 57.93 97C57.1 98.73 56.29 98.82 55.51 99.32C54.73 100.11 53.98 100.94 53.25 101.94C51.81 102.87 50.49 104.08 49.33 105.31C48.17 106.64 47.15 107.33 46.32 108.13C44.66 109.82 43.72 109.83 43.72 110.04C43.72 109.52 45.7 111.05 47.67 111.97C49.65 113.58 51.62 114.06 51.62 113.9C51.62 113.54 52.89 112.58 54.93 111.88C55.95 110.85 57.16 110.32 58.5 109.62C59.84 108.71 61.31 107.62 62.85 106.47C63.62 105.85 64.41 105.24 65.2 104.62C65.99 104 66.8 103.37 67.61 102.74C69.22 101.54 70.84 99.97 72.4 98.67C73.96 97.01 75.47 95.51 76.85 94.13C78.24 92.56 79.5 90.96 80.59 89.47C80.24 92.4 79.85 95.17 79.43 97.75C79.01 100.89 78.56 103.63 78.11 104.89C77.88 105.86 77.65 106.85 77.42 107.84C77.19 108.83 76.96 109.99 76.72 110.74C76.26 112.66 75.8 114.7 75.37 116.16C74.93 117.48 74.52 119.58 74.15 120.06C73.77 120.32 73.44 122.62 73.16 123.06C72.59 124.15 72.25 124.85 72.25 125.4C72.25 124.62 74.25 125.13 76.92 124.11C78.25 123.74 79.76 123.44 81.26 123.08C82.76 122.79 84.26 122.71 85.6 121.73C88.27 120.06 90.27 122.06 90.27 120.44C90.5 117.8 90.72 117.55 90.93 117.63C91.14 116.68 91.34 115.71 91.53 114.78C91.91 112.8 92.24 111.45 92.54 107.81C92.84 105.55 93.09 102.29 93.31 99.73C93.53 97.29 93.72 94.09 93.87 90.74C95.32 91.79 97.17 93.62 99.16 95.72C101.16 97.65 103.32 100.34 105.4 103.03C107.48 105.77 109.5 108.75 111.21 112.4C113.04 112.49 115.81 112.53 118.12 112.87C120.43 113.3 122.29 113.24 122.29 113.2C122.29 113.27 122.49 110.03 122.69 106.81C122.89 103.45 123.09 100.35 123.09 100.42C123.09 100.59 121.88 99.92 119.91 97.82C118.93 97.46 117.76 96.26 116.46 95.08C115.16 94.23 113.73 92.57 112.22 91.67C110.71 90.05 109.13 89.44 107.54 88.1C105.94 86.3 104.33 85.78 102.76 84.44C101.19 83.44 99.66 82.15 98.23 81.2C96.8 79.93 95.47 79.01 94.29 78.63C94.22 78.73 94.17 78.49 94.11 78.52C94.11 78.42 94.3 78.36 94.3 78.52C94.3 78.32 95.19 78.33 96.53 78.5C97.87 78.52 99.66 78.66 101.44 78.46C103.23 78.43 105.01 78.18 106.35 78.41C107.69 78.49 108.58 78.22 108.58 78.41C108.58 78.74 108.56 80.2 108.54 81.68C108.52 82.62 108.5 85.01 108.5 84.95C108.5 85.12 109.2 84.89 110.25 84.31C111.3 84.18 112.7 83.27 114.1 82.49C115.5 81.87 116.9 81.29 117.95 80.7C119 80.44 119.7 80.11 119.7 80.03C119.7 80.42 119.66 77.38 119.61 74.81C119.58 72.82 119.56 71.28 119.53 69.92C119.5 68.07 119.47 66.22 119.45 65.11C119.4 62.58 119.36 60.24 119.36 59.89C119.33 58.58 119.5 56.78 119.85 55.28C120.2 53.9 120.74 52.43 121.45 50.94C121.45 50.74 123.68 46.83 123.68 46.59L123.7 46.54ZM63.26 69.5V54.6C63.26 54.96 65.34 54.52 68.11 54.49C69.49 54.3 71.05 53.77 72.61 54.39C74.17 53.8 75.73 54.51 77.11 54.29C79.88 54.49 81.96 54.38 81.96 54.18C82.06 56.13 82.12 58.39 82.16 60.38C82.19 62.62 82.19 64.97 82.16 66.74C82.14 67.27 82.13 68.16 82.11 69.02C82.11 69.32 80.02 69.43 77.23 69.15C75.83 69.16 74.27 69.51 72.7 69.29C71.13 69.54 69.56 69.55 68.17 69.39C65.38 69.33 63.29 68.84 63.29 69.52L63.26 69.5ZM108.72 68.32C108.72 67.48 107.83 67.8 106.49 68.36C105.15 68.4 103.37 67.79 101.58 68.51C99.79 69.11 98.01 68.58 96.67 68.64C95.33 68.78 94.44 68.6 94.44 68.7C94.44 67.73 94.45 66.8 94.45 65.03C94.45 63.76 94.45 63.32 94.45 61.33C94.45 60.18 94.44 57.92 94.43 57.62C94.42 56.88 94.41 55.45 94.39 53.9C94.39 54.06 95.3 54.01 96.66 53.8C98.02 53.56 99.84 53.72 101.65 53.73C103.47 52.93 105.28 53.67 106.64 53.62C108 53.92 108.91 54.26 108.91 53.57C108.91 53.39 108.9 54.56 108.88 55.92C108.86 57.57 108.84 59.55 108.82 60.95C108.8 62.35 108.77 64.25 108.76 65.89C108.74 67.27 108.73 67.8 108.73 68.33L108.72 68.32Z" fill="#FFFDFA"/>
<path d="M129.01 119.05C129.01 118.81 128.64 119.76 128.02 120.79C127.4 121.87 126.54 123.72 125.56 125.66C125.07 125.94 124.54 127.49 124 128.53C123.46 129.28 122.91 130.87 122.35 131.8C121.8 132.9 121.24 134.03 120.7 134.99C120.16 136.37 119.64 136.55 119.14 137.95C118.15 139.03 117.29 141.93 116.68 142.68C116.06 143.63 115.69 144.49 115.69 144.57C115.69 144.42 114.39 145.49 112.08 145.9C110.93 146.81 109.52 147.01 107.91 147.21C106.29 147.66 104.47 148.16 102.47 148.63C101.47 148.75 100.42 147.92 99.34 149.16C98.26 149.16 97.13 149.5 95.98 149.88C94.82 150.7 93.63 150.41 92.41 150.57C91.19 150.73 89.94 150.82 88.67 150.87C87.71 150.67 86.75 150.9 85.76 151C84.78 151.42 83.79 151.18 82.78 151.19C81.78 151.07 80.76 151.05 79.74 151.19C78.72 151.13 77.69 151.25 76.66 151.07C74.59 150.78 72.5 150.51 70.4 150.16C68.3 149.81 66.19 149.44 64.1 149.14C63.05 149.05 62 148.57 60.96 148.23C59.92 147.81 58.88 147.71 57.85 147.12C56.82 146.86 55.79 146.15 54.77 145.77C53.75 145.32 52.74 144.84 51.74 144.26C50.74 143.43 49.75 142.75 48.77 142.45C47.79 141.62 46.83 141.31 45.88 140.58C44.93 140.41 43.99 139.45 43.07 138.81C42.15 138.54 41.24 137.08 40.36 135.66C39.47 134.51 38.61 133.89 37.76 132.65C36.91 131.6 36.08 130.55 35.28 129.7C33.67 127.76 32.15 124.84 30.73 122.51C30.73 122.51 29.8 123.01 28.53 124.36C27.68 125.26 26.68 126.45 25.71 128.28C25.22 129.32 24.74 130.35 24.28 131.6C23.83 132.78 23.4 134.04 23.02 135.06C22.64 136.22 22.32 137.51 22.06 139.62C21.8 141.51 21.62 143.48 21.53 145.31C19.98 144.63 18.55 142.35 17.23 141.77C15.92 141.17 14.73 138.99 13.66 138.68C12.6 137.76 11.67 136.96 10.87 135.8C10.08 134.85 9.41998 133.89 8.90998 132.89C7.88998 130.65 7.44998 128.39 7.66998 126.04C8.88998 124.1 10.98 121.91 13.24 119.38C14.37 118.42 15.54 117.56 16.66 116.75C17.78 116.24 18.85 115.35 19.77 114.46C21.62 113.33 22.91 112.45 22.91 112.54C22.91 112.9 22.65 111.57 22.34 109.19C22.19 107.87 22.02 107.05 21.86 104.88C21.71 106.16 21.56 100.93 21.46 100.39C21.41 101.36 21.37 92.53 21.34 97.35C21.31 97.07 21.29 91.84 21.29 94.3C21.29 100.95 21.3 92.53 21.34 91.15C21.37 82.22 21.43 92.32 21.5 88.03C21.58 89.69 21.67 82.19 21.8 84.61C21.92 82.22 22.07 81.65 22.25 81.11C22.43 81.22 22.64 78.51 22.88 77.57C23.12 76.06 23.39 75.33 23.7 74.01C23.7 74.34 22.71 73.76 21.22 73.76C19.73 73.38 17.74 73.64 15.76 73.38C13.77 72.97 11.79 73.12 10.3 72.94C8.80998 73.43 7.81998 72.7 7.81998 72.74C7.81998 72.14 6.94998 70.93 5.78998 68.6C5.20998 67.03 4.55998 65.98 3.89998 64.75C3.24998 63.73 2.58998 61.77 2.00998 60.9C0.84998 58.81 -0.0200195 56.82 -0.0200195 56.76C-0.0200195 56.77 1.83998 57.65 4.70998 58.11C6.14998 59.1 7.83998 58.91 9.67998 59.46C10.6 59.49 11.56 60.2 12.54 60.34C13.52 60.68 14.53 60.91 15.55 60.97C16.57 61.28 17.6 61.48 18.63 61.68C19.66 61.88 20.68 62.1 21.69 62.44C22.7 62.74 23.7 62.95 24.67 63.12C25.64 63.29 26.58 63.61 27.48 63.58C28.06 62.04 28.7 61.27 29.39 60.02C30.08 58.67 30.83 57.9 31.63 56.61C31.63 56.73 33.11 57.7 35.09 59.64C36.08 60.65 37.19 61.69 38.3 62.43C39.41 63.68 40.52 64.47 41.51 65.26C43.48 66.7 44.97 66.58 44.97 68.29C44.97 67.6 44.6 69.88 44.01 70.59C43.72 71.04 43.37 72.05 42.99 73.25C42.61 74.48 42.2 75.37 41.77 77.01C41.34 78.64 40.9 80.11 40.47 81.61C40.04 83.86 39.61 83.38 39.21 86.82C39.01 88.11 38.82 87.92 38.63 89.58C38.45 90.79 38.27 91.06 38.11 92.78C37.95 93.32 37.79 95.85 37.66 95.98C37.52 98.4 37.4 99.29 37.29 99.31C37.08 102.3 36.93 104.21 36.87 106.33C36.81 108.54 36.83 111.21 36.97 113.75C37.04 115.1 37.34 116.42 37.85 117.65C38.36 118.88 39.09 119.95 40.01 121C40.75 121.75 41.53 122.49 42.35 123.43C43.17 123.82 44.03 124.57 44.92 125.11C45.81 125.41 45.99 126.26 47.25 127.06C48.21 128.27 48.74 128.36 49.77 128.74C50.79 128.97 51.08 129.19 52.16 129.84C53.24 130.23 55.1 130.91 56.22 131.13C57.91 131.34 58.76 131.3 60.54 132.03C62.32 132.25 64.31 132.59 66.15 132.68C67.99 133.07 69.94 133.15 71.83 133.07C73.71 133.07 76.19 133.04 78.09 133.01C79.99 132.53 82.9 132.51 84.8 132.36C85.75 132.37 107.08 128.76 108.09 127.65C109.86 127.24 113.3 125.97 114.86 125.46C116.43 124.63 118.89 123.53 120.21 122.94C121.54 122.79 123 121.37 124.05 120.94C125.1 120.91 126.01 119.95 126.74 119.95C128.22 118.95 129.03 119.16 129.03 119.07L129.01 119.05Z" fill="#FFFDFA"/>
</g>
<defs>
<clipPath id="clip0_188_105">
<rect width="914.11" height="151.24" fill="white"/>
</clipPath>
</defs>
</svg>
