<svg width="569" height="350" viewBox="0 0 569 350" fill="none" xmlns="http://www.w3.org/2000/svg">
<g clip-path="url(#clip0_188_156)">
<path d="M2.02 326.91V250.4C2.02 246.49 1.78 242.58 1.31 238.69L0 227.86H41.83C65.2 227.86 75.58 240.49 75.58 265.95C75.58 291.41 64.91 304.04 40.82 304.04H13.27V323.61C13.27 329.72 13.85 335.81 14.99 341.81L16.45 349.45H0L1.31 338.62C1.78 334.74 2.02 330.83 2.02 326.91ZM39.37 293.6C56.82 293.6 64.32 284.81 64.32 266.32C64.32 247.83 57.11 238.3 40.38 238.3H13.13V293.6H39.38H39.37Z" fill="#0C0C0D"/>
<path d="M155.77 349.45H140.91L139.68 341.57C138.86 336.33 137.62 331.17 135.97 326.14L133.7 319.24H84.37L82.17 325.74C80.37 331.04 79.04 336.48 78.18 342.01L77.02 349.45H63.75L100.28 240.78C101.38 237.52 101.3 233.98 100.07 230.77L98.95 227.86H115.25L155.78 349.45H155.77ZM130.09 308.61L109.03 245.07L87.83 308.61H130.09Z" fill="#0C0C0D"/>
<path d="M289.16 296.89C306.9 294.33 316.56 281.88 316.56 263.02C316.56 240.5 305.74 227.86 283.53 227.86H240.84L242.15 238.69C242.63 242.58 242.86 246.49 242.86 250.4V326.91C242.86 330.82 242.63 334.73 242.15 338.62L241.49 344.08L211.44 296.89C229.18 294.33 238.84 281.88 238.84 263.02C238.84 240.5 228.02 227.86 205.81 227.86H163.12L164.44 238.69C164.91 242.58 165.14 246.49 165.14 250.4V326.91C165.14 330.82 164.91 334.73 164.44 338.62L163.12 349.45H178.84L177.42 339.83C176.73 335.14 176.38 330.4 176.38 325.66V298.91H199.6L216.21 325.31C220.78 332.58 224.38 340.42 226.89 348.64L227.14 349.45H256.55L255.13 339.83C254.44 335.14 254.09 330.4 254.09 325.66V298.91H277.31L293.92 325.31C298.49 332.58 302.09 340.42 304.6 348.64L304.85 349.45H322.59L289.13 296.89H289.16ZM176.1 288.11V237.94H204.37C219.95 237.94 227.59 246.91 227.59 263.03C227.59 279.15 217.92 288.12 202.35 288.12H176.1V288.11ZM253.82 288.11V237.94H282.09C297.67 237.94 305.31 246.91 305.31 263.03C305.31 279.15 295.64 288.12 280.07 288.12H253.82V288.11Z" fill="#0C0C0D"/>
<path d="M338.48 326.91V250.4C338.48 246.49 338.24 242.58 337.77 238.69L336.46 227.86H351.6L350.34 239.1C349.93 242.71 349.73 246.35 349.73 249.98V327.32C349.73 330.96 349.93 334.59 350.34 338.2L351.6 349.44H336.46L337.77 338.61C338.24 334.73 338.48 330.82 338.48 326.9V326.91Z" fill="#0C0C0D"/>
<path d="M405.06 238.67V323.61C405.06 329.72 405.64 335.81 406.78 341.81L408.24 349.45H390.64L392.1 341.81C393.24 335.81 393.82 329.72 393.82 323.61V238.67H387.16C378 238.67 368.88 239.96 360.08 242.52L361.81 227.87H437.1L438.83 242.52C430.03 239.97 420.91 238.67 411.75 238.67H405.08H405.06Z" fill="#0C0C0D"/>
<path d="M427.1 289.57L438.93 275.29L450.9 289.57L438.93 303.49L427.1 289.57Z" fill="#0C0C0D"/>
<path d="M543.17 349.45H528.31L527.08 341.57C526.26 336.33 525.02 331.17 523.37 326.14L521.1 319.24H471.77L469.57 325.74C467.77 331.04 466.44 336.48 465.58 342.01L464.42 349.45H451.15L487.68 240.78C488.78 237.52 488.7 233.98 487.47 230.77L486.35 227.86H502.65L543.18 349.45H543.17ZM517.5 308.61L496.44 245.07L475.24 308.61H517.5Z" fill="#0C0C0D"/>
<path d="M555.71 326.91V250.4C555.71 246.49 555.47 242.58 555 238.69L553.69 227.86H568.83L567.57 239.1C567.16 242.71 566.96 246.35 566.96 249.98V327.32C566.96 330.96 567.16 334.59 567.57 338.2L568.83 349.44H553.69L555 338.61C555.47 334.73 555.71 330.82 555.71 326.9V326.91Z" fill="#0C0C0D"/>
<path d="M306.4 101.4C306.4 101.4 306.4 101.47 306.4 101.5C306.34 101.46 306.29 101.44 306.23 101.4H306.41H306.4Z" fill="#0C0C0D"/>
<path d="M236.57 43.64C236.57 43.31 237.46 44.31 238.91 44.93C239.64 45.11 240.51 45.57 241.48 46.54C242.45 47.29 243.52 48.06 244.66 48.96C245.8 50.2 246.99 50.4 248.21 52.06C248.82 52.99 249.44 52.91 250.05 53.91C250.67 55.12 251.28 55.69 251.9 55.98C252.51 56.4 253.12 57.03 253.72 58.16C254.32 58.69 254.91 59.62 255.49 60.67C256.07 61.57 256.63 62.07 257.17 63.4C257.71 64.08 258.24 65.42 258.74 66.27C258.13 67.81 257.45 68.7 256.77 70.46C256.09 71.68 255.42 72.99 254.82 74.4C253.62 76.25 252.73 78.18 252.73 78.47C252.73 78.76 252.11 78.4 251.18 77.8C250.25 77.25 249.01 76.98 247.78 76.07C246.54 75.02 245.3 74.8 244.38 74.42C243.45 74.01 242.83 73.48 242.83 73.67C242.83 73.78 242.66 72.85 242.22 71.27C242 70.44 241.71 69.23 241.34 68.46C240.97 67.36 240.52 66.78 239.98 64.81C239.62 64.08 239.22 63.17 238.77 62.14C238.32 61.11 237.83 60 237.29 58.79C236.75 57.89 236.16 56.76 235.52 55.36C234.88 53.72 234.19 53.2 233.44 51.79C232.69 50.52 231.89 49.35 231.03 48.02C230.17 47.04 229.25 45.49 228.26 44.13C228.26 44.05 230.34 44.24 232.41 43.9C234.49 44.01 236.56 43.63 236.56 43.67L236.57 43.64Z" fill="#0C0C0D"/>
<path d="M369.75 83.44C369.64 79.67 369.51 81.69 369.36 78.83C369.21 70.49 367.7 66.5 367.41 65.43C367.12 63.51 366.8 61.83 366.46 61.26C366.11 59.82 364.5 55.13 364.03 52.71C363.61 52.42 363.17 50.54 362.7 48.92C362.23 46.89 361.73 45.85 361.21 45.25C360.69 41.41 356.44 36.24 355.75 34.56C355.06 33.79 354.34 32.87 353.59 31.25C352.84 30.16 352.06 29.04 351.25 27.96C350.44 26.88 349.6 25.86 348.73 24.94C346.99 23.1 345.12 21.05 343.13 19.24C341.1 17.53 338.98 15.4 336.78 14.22C334.58 12.74 332.31 11.81 329.96 10.05C327.62 8.86001 325.21 7.76001 322.75 6.67001C320.29 5.23001 317.77 4.64001 315.21 4.04001C312.65 3.36001 310.05 2.39001 307.42 2.11001C304.79 1.54001 302.13 1.32001 299.46 0.830011C296.99 0.490011 294.52 -0.0399887 292.04 0.190011C289.56 -0.269989 287.08 0.330011 284.6 1.12781e-05C284.6 0.260011 284.47 0.520011 284.47 1.12781e-05C284.36 -0.0199887 284.25 0.240011 284.13 1.12781e-05C281.21 0.120011 278.27 0.0600112 275.34 0.420011C272.41 1.02001 269.49 0.630011 266.58 1.39001C263.68 1.59001 260.8 2.24001 257.95 3.01001C256.53 3.37001 255.12 3.79001 253.72 4.21001C252.32 4.63001 250.93 5.04001 249.56 5.39001C248.18 4.98001 242.8 7.06001 241.49 8.64001C240.18 9.41001 235.08 10.53 233.84 12.86C232.61 13.52 231.4 13.84 230.21 15.37C229.02 16.63 227.86 17.2 226.72 18.16C225.59 19.22 224.5 19.75 223.46 21.18C222.41 22.14 221.41 23.32 220.45 24.44C219.49 25.14 218.56 26.41 217.68 27.67C216.8 28.39 215.95 30.06 215.14 31.5C214.33 33.01 213.56 34.52 212.82 35.36C212.08 36.28 211.38 38.78 210.72 39.21C210.05 40.5 209.42 41.14 208.82 43.11C208.22 44.56 206.07 49.25 205.59 51.58C205.11 53.74 204.66 54.46 204.24 55.94C203.82 56.55 203.42 59.82 203.05 60.29C202.68 61.85 202.34 62.36 202.02 64.67C201.7 66.93 201.41 67.51 201.13 68.82C200.86 69.89 200.61 71.12 200.38 73.44C200.15 75.21 199.94 77.22 199.75 77.9C199.56 80.13 199.39 82.11 199.24 82.12C199.1 82.49 198.98 85.83 198.88 85.91C198.78 87.55 198.7 90.74 198.63 89.95C198.57 91.24 198.52 94.12 198.49 93.91C198.46 95.18 198.45 96.09 198.45 97.79C198.45 99.92 198.48 101.22 198.52 101.92C198.56 105.18 198.61 104.98 198.68 105.62C198.75 105.16 198.84 107.73 198.94 109.59C199.04 111.24 199.16 111.78 199.29 113.44C199.42 115.35 199.57 115.36 199.73 117.46C199.89 120.12 200.07 118.36 200.26 121.23C200.44 122.37 201.28 125.89 201.51 128.79C201.75 132.18 202 130.75 202.26 132.61C202.53 133.94 204.76 143.45 205.14 143.77C205.52 144.63 205.91 146.3 206.33 147.43C206.75 148.5 207.19 149.92 207.65 151.04C208.11 151.89 208.6 153.74 209.11 154.59C209.62 155.63 210.16 156.89 210.72 158.07C212.05 160.8 213.51 163.08 215.11 165.82C216.71 168.12 218.44 170.77 220.3 172.82C222.15 174.7 224.13 176.72 226.22 179.05C228.31 181.01 230.51 182.88 232.81 184.47C235.11 186.04 237.52 187.77 240.02 189.04C242.52 190.64 245.11 191.65 247.78 192.73C250.45 193.82 253.21 194.47 256.04 195.51C257.45 196.07 258.89 196.3 260.34 196.5C261.79 196.7 263.26 197.97 264.74 197.35C266.2 196.5 267.66 197.52 269.14 198.07C270.61 198.17 285.61 198.61 287.13 198.54C288.65 198.47 290.15 198.39 291.67 198.28C294.69 197.97 297.71 197.96 300.71 197.19C303.71 196.42 306.68 195.49 309.62 195.37C311.09 194.9 312.55 194.59 313.99 194.23C315.43 193.87 316.87 193.46 318.3 192.81C319.72 192.38 321.13 191.99 322.52 191.12C323.91 190.32 325.29 189.76 326.65 189.48C328.01 189.23 329.35 188.19 330.68 187.49C332 186.93 333.31 186.4 334.59 185.37C335.8 184.67 336.99 183.73 338.16 183.14C339.33 182.27 340.47 181.31 341.59 180.7C342.71 179.82 343.8 178.83 344.86 177.87C345.92 177.38 346.96 176.23 347.96 175.24C348.96 171.62 352.72 170.73 353.59 169.03C354.46 168.68 357.65 165.43 358.36 162.1C359.13 160.26 359.84 159.84 360.51 158.56C361.18 157.28 361.8 155.85 362.37 154.11C363.52 151.29 364.5 148.98 365.33 145.73C365.75 144.29 366.13 142.87 366.47 141.43C366.81 139.99 367.13 138.55 367.41 137.07C367.69 134.51 367.95 133.91 368.18 132.59C368.41 131.07 368.61 129.56 368.79 128.25C368.95 125.05 369.1 124.58 369.24 124C369.38 122.76 369.82 119.96 369.9 116.27C369.99 111.2 370.06 113.74 370.12 112.08C370.18 111.99 370.23 111.27 370.27 108.11C370.31 109.29 370.33 99.03 370.35 103.92C370.36 101.58 370.37 98.75 370.36 99.62C370.36 100.46 370.33 99.43 370.31 95.77C370.28 95.18 370.24 93.76 370.19 91.76C370.14 90.32 369.85 87.37 369.74 83.41L369.75 83.44ZM359.65 105.2C359.62 103.46 359.58 105.08 359.54 109.39C359.5 104.18 359.44 110.09 359.38 114.04C359.32 119.17 359.24 115.12 359.14 118.35C359.05 119.71 358.94 119.84 358.8 123C358.67 123.44 358.51 125.79 358.33 127.33C358.15 128.96 357.94 129.67 357.71 131.92C357.47 132.99 357.21 134.58 356.91 136.63C356.61 138.11 356.27 139.48 355.9 140.66C355.15 143.88 354.24 146.02 353.14 149.07C352.59 150.46 351.99 151.84 351.34 153.18C350.69 154.03 349.99 153.59 349.22 157C348.46 159.69 347.64 158.21 346.76 160.64C345.88 161.41 338.53 170.19 337.8 170.24C337.07 170.76 336.33 171.28 335.58 172.09C334.07 173.5 332.51 174.64 330.91 175.34C329.71 176.05 328.48 176.62 327.22 177.58C325.97 178.24 324.69 178.86 323.4 179.44C322.11 180.74 320.79 181.19 319.46 181.36C318.13 181.66 316.79 182.51 315.43 182.67C314.07 183.14 312.7 183.59 311.32 184C309.94 184.41 308.55 184.79 307.15 185.09C304.35 186.09 301.53 186.07 298.7 186.76C295.87 187.55 293.04 187.91 290.24 187.74C287.07 188.01 283.89 187.96 280.71 188.09C277.53 188.03 274.36 187.56 271.23 187.57C268.09 187.14 264.99 186.93 261.94 186.06C258.89 185.6 255.9 184.61 253 183.45C250.09 182.37 247.27 181.69 244.55 179.62C241.83 178.27 239.23 176.05 236.75 174.45C234.28 172.36 231.94 170.35 229.75 167.82C227.86 165.78 226.14 164.39 224.56 161.06C222.98 158.2 221.56 156.2 220.27 153.68C219.63 152.38 219.02 151.04 218.44 149.72C217.86 148.4 217.32 147.22 216.8 145.81C216.29 144.51 215.8 143.33 215.35 141.73C214.9 141.38 214.47 139.83 214.08 137.57C213.68 135.1 213.32 133.25 212.97 133.3C212.63 133.21 212.31 130.83 212.02 129.09C211.73 124.77 211.46 125.49 211.22 124.54C210.98 122.02 209.37 109.11 209.29 107.61C209.2 105.5 209.13 105.63 209.08 103.53C209.02 103.08 208.98 101.84 208.97 98.91C208.95 98.07 208.97 96.13 208.99 94.6C209.02 93.71 209.07 91.28 209.15 90.2C209.23 87.37 209.72 82.73 209.89 81.14C210.06 79.25 210.95 73.37 211.22 72.14C211.49 70.14 211.79 68.89 212.12 68.07C212.44 67.11 212.77 65.04 213.13 63.81C213.49 62.3 213.87 60.7 214.28 59.56C214.69 58.01 215.12 56.19 215.58 55.42C216.04 54.47 216.53 51.64 217.06 51.16C217.58 50.47 218.14 48.21 218.73 46.99C219.32 45.88 219.95 44.05 220.62 43.09C221.29 41.68 221.99 40.42 222.74 39.21C223.49 38.01 224.28 36.6 225.12 35.55C225.97 34.17 226.87 33.14 227.8 31.97C228.74 30.74 229.72 29.68 230.73 28.85C231.75 27.81 232.8 27.02 233.89 25.93C234.98 24.82 243.47 18.97 248.42 17.27C249.73 17.1 259.3 13.29 260.71 13.11C263.53 12.6 266.38 11.55 269.26 11.57C271.78 11.09 274.31 10.44 276.84 10.85C279.37 10.78 281.91 10.96 284.45 10.55C284.45 10.47 284.45 10.75 284.46 10.55C287.54 10.84 290.63 10.75 293.72 10.87C296.8 11.24 299.87 11.37 302.91 11.97C305.95 12.19 308.95 13.07 311.9 14C314.85 14.82 317.74 15.67 320.56 17.12C323.38 18.31 326.11 19.82 328.75 21.49C331.25 23.53 333.58 24.56 335.73 26.79C337.89 28.5 339.87 30.74 341.7 33.02C342.61 33.96 343.49 35.07 344.32 36.27C345.16 39.18 345.95 38.03 346.71 40.06C347.47 42.92 348.19 42.25 348.88 44.04C349.57 44.85 350.22 47.17 350.83 47.78C351.41 50.19 351.96 46.51 352.48 51.34C352.99 52.89 354.78 57.47 355.17 59.38C355.55 59.4 355.91 63.34 356.24 63.49C356.57 65.57 356.86 65.99 357.14 67.52C357.41 69.88 357.66 71.3 357.88 71.63C358.1 71.75 358.3 71.52 358.48 75.77C358.66 83.48 359.46 87.61 359.52 88.3C359.58 88.83 359.63 88.9 359.66 92.36C359.68 91.23 359.69 94.57 359.7 92.34C359.7 92.64 359.72 95.84 359.72 96.76C359.72 99.7 359.72 101.73 359.71 100.89C359.7 98.5 359.67 106.37 359.64 105.24L359.65 105.2Z" fill="#0C0C0D"/>
<path d="M333.25 72.22C333.25 72.28 331.83 71.37 329.89 69.83C328.92 69.25 327.83 68.18 326.72 67.32C325.61 66.34 324.49 65.58 323.46 64.47C322.37 65.64 321.36 66.42 320.4 67.31C319.44 67.87 318.52 68.75 317.6 69.4C316.67 70.24 315.74 70.28 314.75 70.52C313.76 70.67 312.71 70.97 311.55 70.85C311.55 70.92 310.25 71.05 308.94 71.09C307.63 71.13 306.33 70.94 306.33 70.8C306.31 69.75 306.28 68.91 306.25 67.68C306.22 66.79 306.19 65.5 306.16 64.5C306.13 63.8 306.09 62.73 306.06 61.39C306.02 60.11 305.99 59.01 305.95 58.32C306.91 58.59 307.88 58.55 308.84 58.46C309.8 59.05 310.77 58.55 311.72 58.53C312.68 58.72 313.63 58.26 314.57 58.55C315.51 59.08 316.45 58.3 317.37 58.74C318.29 58.64 319.2 58.73 320.08 58.82C320.97 59 321.84 58.8 322.69 58.89C324.39 59.24 326 59.08 327.49 59.12C328.98 59.29 330.35 59.25 331.57 59.22C332.79 59.19 333.85 59.17 334.73 59.39C336.48 59.75 337.49 59.13 337.49 59.49C337.49 59.42 336.45 58.32 335.06 55.45C334.36 54.42 333.58 53.26 332.8 51.79C332.02 50.66 331.24 48.91 330.54 47.95C329.15 46 328.11 43.62 328.11 43.91C328.11 44.66 326.71 44.8 324.28 46.62C323.06 46.88 321.59 48.76 319.9 48.48C319.06 49.06 318.16 49.2 317.21 49.2C316.27 49.29 315.27 49.42 314.24 49.37C313.48 49.19 312.47 49.82 311.25 49.36C310.02 49.16 308.58 49.27 306.96 49.28C307.24 48.27 307.59 47.29 307.98 46.58C307.98 46.91 308.67 45.37 309.36 43.49C310.05 41.93 310.74 40.17 310.74 40.4C310.74 40.07 309.23 39.52 306.96 38.73C305.83 38.61 304.51 37.8 303.09 37.3C301.67 36.53 300.16 36.11 298.65 35.06C297.14 34.2 295.63 33.94 294.21 33.11C292.79 32.81 291.47 31.51 290.34 31.38C288.07 30.18 286.56 30.17 286.56 29.71C286.56 29.95 286.83 30.53 287.29 32.04C287.52 32.92 287.79 33.71 288.09 34.63C288.39 36.46 288.73 37.09 289.08 38.6C289.44 39.62 289.81 41.35 290.19 43.04C290.38 43.69 290.58 44.65 290.77 45.68C290.96 46.71 291.16 47.8 291.35 48.72C289.94 48.75 288.51 48.62 287.06 48.44C285.61 47.74 284.15 48.39 282.68 48.28C281.21 48.43 279.74 48.46 278.27 48.02C276.8 48.04 275.34 48.07 273.89 47.73C272.44 47.67 271.01 47.56 269.61 47.44C268.21 47.49 266.83 47.14 265.49 47.06C262.81 46.39 260.28 46.67 257.98 46.27C256.83 46.2 255.74 46.13 254.71 45.99C253.69 45.93 252.73 45.56 251.85 45.36C251.85 45.55 253.13 46.56 254.83 48.72C255.68 49.35 256.64 50.1 257.6 51.57C258.56 52.63 259.52 53.84 260.37 54.96C262.07 57.13 263.35 58.06 263.35 58.32C263.35 58.28 264.01 58.24 265.36 58.01C266.04 57.9 266.88 57.85 267.91 57.74C268.94 57.88 270.14 57.54 271.52 57.51C272.9 57.25 274.47 57.45 276.21 57.34C277.96 57.36 279.89 57.43 282.01 57.48C283.31 57.51 284.92 57.81 286.77 57.64C287.69 57.67 288.68 57.42 289.71 57.8C290.74 58.07 291.82 58.01 292.94 57.85C293.09 58.7 293.24 60.03 293.39 60.75C293.53 61.4 293.67 63.09 293.81 64.06C293.94 65.41 294.07 66.03 294.19 67.48C294.31 68.53 294.42 69.31 294.52 70.69C294.52 70.58 292.69 70.45 290.24 70.65C289.02 70.92 287.64 70.46 286.27 70.56C284.9 70.31 283.52 70.58 282.3 70.56C279.86 70.42 278.02 70.42 278.02 70.52C278.02 70.59 278.02 67.7 278.02 67.77C278.02 67.73 275.24 66.61 272.47 65.08C269.69 64.27 266.92 62.54 266.92 62.39C266.92 62.4 266.94 63.68 266.98 66.01C267 67.11 267.02 68.55 267.05 70.12C267.07 69.47 267.1 72.32 267.13 75.06C267.14 73.64 267.16 74.04 267.18 77.83C267.2 72.75 267.21 81.65 267.23 80.64C267.25 83.03 267.26 85.88 267.28 83.75C267.3 84.64 267.31 91.21 267.33 86.81C267.35 89.66 267.36 91.47 267.38 89.92C267.4 90.17 267.41 88.47 267.43 92.86C267.45 92.3 267.46 94.55 267.48 95.78C267.5 97.21 267.51 97.42 267.53 98.57C267.56 100.46 267.59 102.1 267.61 103.57C267.63 105.18 267.66 106.36 267.68 107.61C267.72 108.67 267.74 111.56 267.74 111.23C267.74 110.81 268.38 111.49 269.35 110.44C270.32 109.95 271.61 109.5 272.89 108.54C274.18 108.35 275.47 106.94 276.43 106.77C277.4 105.82 278.04 105.93 278.04 105.85C278.04 106.85 278.04 101.62 278.04 101.64C278.04 101.61 280 101.25 281.97 101.61C283.93 101.88 285.9 101.49 285.9 101.58C285.22 102.69 284.54 103.72 283.87 104.69C283.2 105.55 282.53 106.24 281.87 107.46C281.21 108.61 280.56 108.89 279.91 110.15C279.26 110.73 278.63 110.95 278 112.58C277.16 112.36 276.34 113.98 275.54 115.68C274.74 116.43 273.95 116.43 273.19 118.26C272.43 119.84 271.69 119.92 270.98 120.38C270.27 121.1 269.58 121.86 268.92 122.78C267.6 123.63 266.4 124.74 265.34 125.86C264.28 127.07 263.35 127.7 262.59 128.43C261.07 129.97 260.21 129.98 260.21 130.17C260.21 129.7 262.02 131.09 263.82 131.94C265.63 133.41 267.43 133.85 267.43 133.71C267.43 133.38 268.59 132.5 270.45 131.86C271.38 130.92 272.49 130.43 273.71 129.79C274.94 128.96 276.28 127.97 277.69 126.92C278.39 126.36 279.11 125.8 279.84 125.23C280.57 124.66 281.3 124.09 282.04 123.51C283.51 122.41 284.99 120.98 286.42 119.8C287.85 118.29 289.22 116.92 290.49 115.65C291.76 114.21 292.91 112.75 293.9 111.39C293.58 114.07 293.22 116.6 292.84 118.95C292.46 121.82 292.05 124.32 291.63 125.47C291.42 126.36 291.21 127.26 291 128.16C290.79 129.06 290.58 130.12 290.36 130.81C289.94 132.57 289.52 134.43 289.12 135.76C288.72 136.97 288.35 138.89 288 139.32C287.66 139.56 287.35 141.66 287.09 142.06C286.57 143.05 286.26 143.69 286.26 144.2C286.26 143.48 288.09 143.95 290.52 143.03C291.74 142.69 293.11 142.42 294.48 142.09C295.85 141.83 297.22 141.75 298.44 140.85C300.88 139.33 302.7 141.15 302.7 139.68C302.91 137.27 303.11 137.04 303.3 137.12C303.49 136.25 303.67 135.37 303.84 134.52C304.18 132.71 304.49 131.48 304.76 128.16C305.03 126.1 305.26 123.12 305.47 120.78C305.67 118.55 305.84 115.63 305.98 112.57C307.31 113.53 308.99 115.2 310.82 117.12C312.65 118.88 314.62 121.34 316.52 123.79C318.42 126.29 320.26 129.01 321.82 132.35C323.49 132.43 326.02 132.47 328.13 132.78C330.24 133.18 331.94 133.11 331.94 133.08C331.94 133.14 332.12 130.18 332.31 127.25C332.49 124.18 332.68 121.35 332.68 121.42C332.68 121.58 331.57 120.96 329.78 119.04C328.88 118.71 327.81 117.61 326.63 116.54C325.44 115.76 324.13 114.24 322.76 113.42C321.38 111.94 319.94 111.39 318.49 110.16C317.03 108.52 315.56 108.04 314.13 106.82C312.7 105.91 311.3 104.73 309.99 103.86C308.68 102.7 307.46 101.86 306.39 101.51C306.33 101.6 306.28 101.38 306.22 101.41C306.22 101.32 306.4 101.27 306.4 101.41C306.4 101.22 307.22 101.24 308.44 101.39C309.66 101.41 311.3 101.54 312.93 101.35C314.56 101.32 316.19 101.09 317.42 101.3C318.64 101.38 319.46 101.13 319.46 101.3C319.46 101.6 319.44 102.94 319.42 104.29C319.4 105.15 319.38 107.33 319.38 107.28C319.38 107.44 320.02 107.23 320.98 106.69C321.94 106.57 323.22 105.74 324.5 105.03C325.78 104.46 327.06 103.94 328.02 103.39C328.98 103.15 329.62 102.85 329.62 102.78C329.62 103.13 329.58 100.36 329.54 98.01C329.52 96.19 329.49 94.78 329.46 93.54C329.43 91.85 329.41 90.16 329.38 89.14C329.33 86.83 329.3 84.69 329.3 84.37C329.28 83.18 329.43 81.53 329.75 80.16C330.07 78.9 330.56 77.55 331.21 76.19C331.21 76.01 333.25 72.44 333.25 72.22ZM278.06 93.19V79.58C278.06 79.91 279.96 79.51 282.49 79.48C283.75 79.3 285.18 78.82 286.6 79.39C288.02 78.85 289.45 79.5 290.71 79.3C293.24 79.49 295.14 79.38 295.14 79.2C295.23 80.98 295.29 83.04 295.32 84.86C295.35 86.91 295.35 89.05 295.32 90.67C295.31 91.15 295.29 91.97 295.27 92.75C295.27 93.02 293.36 93.13 290.81 92.87C289.54 92.88 288.1 93.2 286.67 92.99C285.24 93.22 283.8 93.23 282.53 93.08C279.98 93.03 278.07 92.58 278.07 93.2L278.06 93.19ZM319.57 92.11C319.57 91.34 318.75 91.64 317.53 92.14C316.31 92.18 314.68 91.62 313.05 92.27C311.42 92.82 309.79 92.33 308.57 92.39C307.35 92.52 306.53 92.35 306.53 92.44C306.53 91.55 306.54 90.7 306.54 89.09C306.54 87.93 306.54 87.53 306.54 85.71C306.54 84.66 306.53 82.59 306.52 82.32C306.52 81.64 306.5 80.34 306.48 78.92C306.48 79.07 307.31 79.02 308.55 78.83C309.79 78.61 311.45 78.76 313.11 78.77C314.77 78.04 316.43 78.71 317.67 78.67C318.91 78.95 319.74 79.26 319.74 78.62C319.74 78.45 319.73 79.52 319.71 80.77C319.69 82.28 319.67 84.08 319.65 85.36C319.63 86.64 319.61 88.37 319.59 89.87C319.57 91.13 319.56 91.61 319.56 92.1L319.57 92.11Z" fill="#0C0C0D"/>
<path d="M338.1 138.44C338.1 138.22 337.76 139.09 337.2 140.03C336.64 141.02 335.85 142.7 334.95 144.48C334.5 144.74 334.02 146.15 333.53 147.1C333.04 147.79 332.53 149.24 332.03 150.09C331.52 151.09 331.02 152.13 330.53 153C330.04 154.26 329.56 154.43 329.11 155.7C328.21 156.68 327.42 159.34 326.86 160.02C326.3 160.89 325.96 161.67 325.96 161.75C325.96 161.62 324.77 162.59 322.66 162.96C321.61 163.79 320.33 163.97 318.85 164.15C317.37 164.56 315.71 165.02 313.88 165.45C312.97 165.56 312.01 164.8 311.02 165.94C310.03 165.94 309.01 166.25 307.95 166.6C306.89 167.35 305.81 167.08 304.69 167.23C303.57 167.38 302.44 167.45 301.27 167.5C300.4 167.32 299.51 167.53 298.62 167.62C297.72 168 296.82 167.78 295.9 167.79C294.98 167.68 294.06 167.66 293.13 167.79C292.2 167.73 291.26 167.84 290.31 167.68C288.42 167.42 286.51 167.17 284.59 166.85C282.67 166.53 280.75 166.2 278.83 165.92C277.87 165.84 276.92 165.4 275.96 165.09C275.01 164.71 274.06 164.62 273.12 164.08C272.18 163.84 271.24 163.19 270.31 162.85C269.38 162.44 268.46 162 267.55 161.47C266.64 160.71 265.73 160.1 264.84 159.81C263.95 159.06 263.07 158.76 262.2 158.1C261.33 157.94 260.48 157.07 259.64 156.48C258.8 156.23 257.97 154.9 257.16 153.6C256.35 152.55 255.56 151.98 254.78 150.85C254.01 149.89 253.25 148.93 252.51 148.16C251.04 146.39 249.65 143.72 248.35 141.6C248.35 141.6 247.5 142.06 246.34 143.29C245.57 144.11 244.65 145.2 243.76 146.87C243.31 147.82 242.87 148.76 242.46 149.9C242.04 150.98 241.65 152.13 241.31 153.06C240.97 154.12 240.67 155.29 240.43 157.22C240.2 158.94 240.03 160.75 239.94 162.41C238.53 161.79 237.22 159.7 236.02 159.17C234.82 158.62 233.73 156.63 232.76 156.34C231.79 155.5 230.94 154.77 230.21 153.71C229.49 152.84 228.89 151.97 228.42 151.05C227.49 149.01 227.09 146.94 227.29 144.79C228.4 143.02 230.32 141.02 232.38 138.71C233.41 137.84 234.48 137.04 235.5 136.3C236.52 135.84 237.5 135.02 238.34 134.21C240.03 133.17 241.21 132.37 241.21 132.45C241.21 132.78 240.98 131.56 240.69 129.39C240.55 128.18 240.4 127.44 240.26 125.46C240.12 126.63 239.99 121.86 239.9 121.36C239.85 122.24 239.81 114.18 239.79 118.59C239.76 118.33 239.75 113.56 239.75 115.8C239.75 121.87 239.76 114.18 239.8 112.92C239.83 104.76 239.88 113.99 239.95 110.07C240.02 111.59 240.11 104.74 240.22 106.94C240.33 104.75 240.47 104.23 240.63 103.75C240.79 103.85 240.98 101.37 241.2 100.51C241.42 99.13 241.67 98.46 241.95 97.26C241.95 97.56 241.04 97.03 239.68 97.03C238.32 96.68 236.5 96.92 234.69 96.68C232.88 96.31 231.06 96.44 229.7 96.28C228.34 96.73 227.43 96.06 227.43 96.1C227.43 95.55 226.63 94.45 225.57 92.32C225.04 90.89 224.44 89.93 223.85 88.81C223.25 87.88 222.66 86.08 222.13 85.3C221.07 83.39 220.27 81.57 220.27 81.52C220.27 81.52 221.97 82.34 224.59 82.75C225.9 83.65 227.45 83.48 229.13 83.99C229.97 84.02 230.85 84.67 231.74 84.8C232.64 85.11 233.56 85.32 234.49 85.38C235.42 85.66 236.36 85.84 237.3 86.03C238.24 86.22 239.18 86.41 240.1 86.73C241.02 87 241.93 87.19 242.82 87.35C243.71 87.51 244.56 87.79 245.38 87.77C245.91 86.37 246.49 85.66 247.12 84.52C247.75 83.28 248.43 82.59 249.17 81.41C249.17 81.52 250.52 82.41 252.33 84.17C253.23 85.09 254.25 86.04 255.26 86.72C256.27 87.86 257.29 88.58 258.19 89.3C259.99 90.62 261.35 90.51 261.35 92.06C261.35 91.43 261.01 93.52 260.47 94.16C260.2 94.57 259.89 95.5 259.54 96.59C259.19 97.71 258.81 98.52 258.43 100.02C258.04 101.51 257.64 102.85 257.24 104.22C256.84 106.27 256.45 105.83 256.09 108.98C255.91 110.16 255.73 109.98 255.56 111.5C255.39 112.61 255.23 112.86 255.08 114.42C254.93 114.91 254.79 117.22 254.67 117.34C254.54 119.55 254.43 120.36 254.33 120.39C254.13 123.12 254 124.86 253.94 126.8C253.88 128.82 253.91 131.26 254.03 133.58C254.09 134.81 254.37 136.02 254.83 137.14C255.29 138.26 255.96 139.24 256.8 140.2C257.47 140.88 258.18 141.56 258.93 142.42C259.68 142.77 260.46 143.46 261.28 143.95C262.1 144.22 262.26 145 263.41 145.73C264.29 146.83 264.77 146.91 265.71 147.26C266.65 147.47 266.9 147.67 267.89 148.26C268.88 148.61 270.57 149.24 271.6 149.44C273.14 149.63 273.92 149.6 275.55 150.26C277.17 150.46 278.99 150.77 280.68 150.85C282.36 151.21 284.14 151.28 285.86 151.2C287.58 151.2 289.84 151.17 291.57 151.14C293.31 150.7 295.97 150.69 297.7 150.55C298.57 150.56 318.04 147.27 318.97 146.25C320.58 145.87 323.73 144.71 325.16 144.25C326.59 143.49 328.84 142.49 330.05 141.95C331.26 141.81 332.6 140.51 333.56 140.12C334.52 140.09 335.35 139.22 336.02 139.21C337.37 138.29 338.11 138.49 338.11 138.41L338.1 138.44Z" fill="#0C0C0D"/>
</g>
<defs>
<clipPath id="clip0_188_156">
<rect width="568.83" height="349.45" fill="white"/>
</clipPath>
</defs>
</svg>
