<svg width="778" height="152" viewBox="0 0 778 152" fill="none" xmlns="http://www.w3.org/2000/svg">
<g clip-path="url(#clip0_188_320)">
<path d="M2.45 123.67V30.84C2.45 26.09 2.16 21.35 1.59 16.64L0 3.48999H50.75C79.1 3.48999 91.7 18.82 91.7 49.7C91.7 80.58 78.75 95.91 49.52 95.91H16.1V119.65C16.1 127.06 16.8 134.46 18.18 141.74L19.95 151.01H0L1.59 137.87C2.16 133.16 2.45 128.41 2.45 123.67ZM47.78 83.26C68.95 83.26 78.06 72.59 78.06 50.15C78.06 27.71 69.31 16.16 49.01 16.16H15.93V83.26H47.78Z" fill="#FFFDFA"/>
<path d="M189 151.02H170.97L169.48 141.46C168.49 135.1 166.98 128.84 164.97 122.73L162.22 114.36H102.37L99.7 122.25C97.52 128.68 95.9 135.28 94.86 141.99L93.45 151.02H77.35L121.67 19.17C123 15.21 122.91 10.92 121.41 7.01999L120.05 3.48999H139.83L189.01 151.02H189ZM157.85 101.47L132.3 24.37L106.57 101.47H157.85Z" fill="#FFFDFA"/>
<path d="M350.86 87.25C372.38 84.14 384.11 69.04 384.11 46.15C384.11 18.82 370.98 3.48999 344.03 3.48999H292.23L293.82 16.63C294.4 21.35 294.68 26.09 294.68 30.84V123.67C294.68 128.42 294.4 133.16 293.82 137.88L293.02 144.51L256.56 87.25C278.08 84.14 289.81 69.04 289.81 46.15C289.81 18.82 276.68 3.48999 249.73 3.48999H197.93L199.53 16.63C200.1 21.35 200.38 26.09 200.38 30.84V123.67C200.38 128.42 200.1 133.16 199.53 137.88L197.93 151.02H217.01L215.29 139.35C214.45 133.66 214.03 127.91 214.03 122.16V89.7H242.21L262.37 121.73C267.92 130.55 272.28 140.07 275.33 150.04L275.63 151.02H311.31L309.59 139.35C308.75 133.66 308.33 127.91 308.33 122.16V89.7H336.51L356.67 121.73C362.22 130.55 366.58 140.07 369.63 150.04L369.93 151.02H391.46L350.86 87.25ZM213.68 76.59V15.71H247.98C266.88 15.71 276.16 26.6 276.16 46.15C276.16 65.7 264.43 76.59 245.53 76.59H213.68ZM307.98 76.59V15.71H342.28C361.18 15.71 370.46 26.6 370.46 46.15C370.46 65.7 358.73 76.59 339.83 76.59H307.98Z" fill="#FFFDFA"/>
<path d="M410.7 123.67V30.84C410.7 26.09 410.41 21.35 409.84 16.64L408.25 3.5H426.63L425.1 17.14C424.61 21.52 424.36 25.93 424.36 30.34V124.19C424.36 128.6 424.61 133.01 425.1 137.39L426.63 151.03H408.25L409.84 137.89C410.41 133.18 410.7 128.43 410.7 123.69V123.67Z" fill="#FFFDFA"/>
<path d="M491.49 16.6V119.66C491.49 127.07 492.19 134.47 493.57 141.75L495.34 151.02H473.99L475.76 141.74C477.15 134.46 477.84 127.07 477.84 119.66V16.6H469.75C458.63 16.6 447.57 18.17 436.89 21.27L438.99 3.5H530.34L532.44 21.27C521.76 18.17 510.7 16.6 499.58 16.6H491.49Z" fill="#FFFDFA"/>
<path d="M518.24 78.36L532.59 61.03L547.12 78.36L532.59 95.25L518.24 78.36Z" fill="#FFFDFA"/>
<path d="M659.07 151.02H641.04L639.55 141.46C638.56 135.1 637.05 128.84 635.04 122.73L632.29 114.36H572.44L569.77 122.25C567.59 128.68 565.97 135.28 564.93 141.99L563.52 151.02H547.42L591.74 19.16C593.07 15.2 592.98 10.91 591.48 7.00998L590.12 3.47998H609.9L659.08 151.01L659.07 151.02ZM627.92 101.47L602.37 24.37L576.64 101.47H627.92Z" fill="#FFFDFA"/>
<path d="M674.28 123.67V30.84C674.28 26.09 673.99 21.35 673.42 16.64L671.83 3.5H690.21L688.68 17.14C688.19 21.52 687.94 25.93 687.94 30.34V124.19C687.94 128.6 688.19 133.01 688.68 137.39L690.21 151.03H671.83L673.42 137.89C673.99 133.18 674.28 128.43 674.28 123.69V123.67Z" fill="#FFFDFA"/>
<path d="M759.58 39.6001C759.58 39.6001 759.58 39.6401 759.58 39.6501C759.55 39.6301 759.52 39.6201 759.49 39.6001H759.59H759.58Z" fill="#FFFDFA"/>
<path d="M721.01 7.69009C721.01 7.51009 721.5 8.06008 722.3 8.40008C722.7 8.50008 723.18 8.76009 723.72 9.29009C724.26 9.70009 724.85 10.1301 725.48 10.6201C726.11 11.3101 726.77 11.4201 727.44 12.3301C727.78 12.8501 728.12 12.8001 728.46 13.3501C728.8 14.0201 729.14 14.3301 729.48 14.5001C729.82 14.7301 730.16 15.0801 730.49 15.7001C730.82 15.9901 731.15 16.5101 731.47 17.0901C731.79 17.5901 732.1 17.8601 732.4 18.6001C732.7 18.9801 732.99 19.7201 733.27 20.1801C732.93 21.0301 732.56 21.5201 732.18 22.4901C731.81 23.1701 731.43 23.8901 731.1 24.6601C730.44 25.6801 729.94 26.7501 729.94 26.9101C729.94 27.0701 729.6 26.8701 729.09 26.5401C728.58 26.2301 727.89 26.0901 727.21 25.5801C726.53 25.0001 725.84 24.8801 725.33 24.6701C724.82 24.4401 724.48 24.1501 724.48 24.2601C724.48 24.3201 724.39 23.8101 724.14 22.9301C724.02 22.4701 723.86 21.8001 723.66 21.3801C723.46 20.7701 723.21 20.4501 722.91 19.3601C722.71 18.9601 722.49 18.4501 722.24 17.8801C721.99 17.3101 721.72 16.7001 721.43 16.0301C721.13 15.5301 720.81 14.9101 720.45 14.1301C720.1 13.2301 719.72 12.9401 719.3 12.1601C718.89 11.4601 718.44 10.8101 717.97 10.0801C717.49 9.54009 716.99 8.68008 716.44 7.93008C716.44 7.89008 717.59 7.99009 718.73 7.80009C719.88 7.86009 721.02 7.65009 721.02 7.67009L721.01 7.69009Z" fill="#FFFDFA"/>
<path d="M774.42 23.48C774.42 23.48 773.63 23.01 772.57 22.16C772.04 21.84 771.43 21.25 770.82 20.77C770.21 20.23 769.59 19.81 769.02 19.2C768.42 19.85 767.86 20.28 767.33 20.77C766.8 21.08 766.29 21.57 765.78 21.92C765.27 22.38 764.75 22.41 764.21 22.54C763.66 22.62 763.08 22.79 762.44 22.72C762.44 22.76 761.72 22.83 761 22.85C760.28 22.87 759.56 22.77 759.56 22.69C759.55 22.11 759.53 21.65 759.52 20.96C759.5 20.47 759.49 19.76 759.47 19.2C759.45 18.81 759.43 18.22 759.41 17.48C759.39 16.78 759.37 16.17 759.35 15.79C759.88 15.94 760.41 15.92 760.95 15.87C761.48 16.2 762.01 15.92 762.54 15.91C763.07 16.02 763.59 15.76 764.12 15.91C764.64 16.2 765.16 15.77 765.66 16.02C766.17 15.97 766.67 16.02 767.16 16.07C767.65 16.17 768.13 16.07 768.6 16.11C769.54 16.3 770.43 16.21 771.25 16.23C772.07 16.32 772.83 16.3 773.5 16.29C774.17 16.28 774.76 16.26 775.24 16.39C776.21 16.59 776.77 16.24 776.77 16.45C776.77 16.41 776.19 15.8 775.43 14.22C775.05 13.65 774.61 13.01 774.18 12.2C773.75 11.58 773.32 10.61 772.93 10.08C772.16 9.00001 771.59 7.69001 771.59 7.85001C771.59 8.26001 770.82 8.34001 769.47 9.35001C768.8 9.50001 767.98 10.53 767.05 10.38C766.58 10.7 766.09 10.78 765.57 10.78C765.05 10.83 764.5 10.9 763.93 10.88C763.51 10.78 762.95 11.13 762.28 10.88C761.6 10.77 760.8 10.83 759.91 10.83C760.07 10.27 760.26 9.73001 760.47 9.34001C760.47 9.52001 760.85 8.67001 761.23 7.63001C761.61 6.77001 761.99 5.80001 761.99 5.92001C761.99 5.74001 761.16 5.43001 759.9 5.00001C759.27 4.93001 758.54 4.49001 757.76 4.21001C756.98 3.79001 756.14 3.55001 755.31 2.97001C754.48 2.49001 753.64 2.35001 752.86 1.89001C752.08 1.72001 751.35 1.01001 750.72 0.93001C749.47 0.27001 748.63 0.26001 748.63 0.0100098C748.63 0.14001 748.78 0.46001 749.03 1.30001C749.15 1.78001 749.3 2.22001 749.47 2.73001C749.64 3.74001 749.82 4.09001 750.02 4.92001C750.22 5.48001 750.42 6.44001 750.64 7.38001C750.75 7.74001 750.85 8.27001 750.96 8.84001C751.07 9.41001 751.17 10.01 751.28 10.52C750.5 10.53 749.71 10.46 748.91 10.36C748.11 9.97001 747.3 10.33 746.49 10.27C745.68 10.35 744.86 10.37 744.05 10.12C743.24 10.13 742.43 10.15 741.63 9.96001C740.83 9.93001 740.04 9.87001 739.27 9.80001C738.49 9.83001 737.73 9.63001 736.99 9.59001C735.51 9.22001 734.11 9.38001 732.84 9.15001C732.2 9.11001 731.6 9.07001 731.03 9.00001C730.46 8.97001 729.94 8.76001 729.45 8.65001C729.45 8.76001 730.16 9.31001 731.1 10.51C731.57 10.86 732.1 11.27 732.63 12.08C733.16 12.66 733.69 13.33 734.16 13.95C735.1 15.15 735.81 15.66 735.81 15.81C735.81 15.79 736.17 15.76 736.92 15.64C737.29 15.58 737.76 15.55 738.33 15.49C738.9 15.57 739.56 15.38 740.32 15.36C741.08 15.22 741.95 15.33 742.91 15.26C743.88 15.27 744.94 15.31 746.12 15.34C746.84 15.36 747.73 15.52 748.75 15.43C749.26 15.45 749.8 15.31 750.37 15.52C750.94 15.67 751.54 15.64 752.16 15.55C752.25 16.02 752.33 16.76 752.41 17.15C752.49 17.51 752.57 18.44 752.64 18.98C752.71 19.73 752.78 20.07 752.85 20.87C752.92 21.45 752.98 21.88 753.03 22.64C753.03 22.58 752.02 22.51 750.67 22.62C750 22.77 749.24 22.52 748.48 22.57C747.72 22.43 746.96 22.58 746.29 22.57C744.94 22.5 743.93 22.49 743.93 22.55C743.93 22.59 743.93 20.99 743.93 21.03C743.93 21.01 742.4 20.39 740.86 19.54C739.33 19.09 737.79 18.14 737.79 18.05C737.79 18.05 737.8 18.76 737.82 20.05C737.83 20.66 737.84 21.45 737.86 22.32C737.87 21.96 737.89 23.53 737.91 25.05C737.91 24.27 737.93 24.49 737.94 26.58C737.94 23.78 737.96 28.69 737.97 28.13C737.97 29.45 737.99 31.02 738 29.85C738 30.34 738.02 33.97 738.03 31.54C738.03 33.11 738.05 34.11 738.06 33.26C738.06 33.4 738.08 32.46 738.09 34.88C738.09 34.57 738.11 35.82 738.12 36.49C738.12 37.28 738.14 37.4 738.15 38.03C738.17 39.08 738.18 39.98 738.2 40.79C738.21 41.68 738.23 42.33 738.24 43.02C738.26 43.61 738.27 45.2 738.27 45.02C738.27 44.79 738.63 45.16 739.16 44.59C739.69 44.32 740.41 44.07 741.12 43.54C741.83 43.44 742.54 42.65 743.08 42.56C743.61 42.04 743.97 42.1 743.97 42.05C743.97 42.6 743.97 39.71 743.97 39.72C743.97 39.71 745.05 39.5 746.14 39.7C747.22 39.85 748.31 39.64 748.31 39.68C747.93 40.29 747.56 40.86 747.19 41.4C746.82 41.88 746.45 42.26 746.09 42.93C745.73 43.57 745.36 43.72 745.01 44.42C744.65 44.74 744.3 44.86 743.95 45.76C743.49 45.64 743.03 46.54 742.59 47.47C742.15 47.89 741.71 47.88 741.29 48.89C740.87 49.76 740.46 49.81 740.07 50.06C739.68 50.46 739.3 50.88 738.93 51.38C738.2 51.85 737.54 52.46 736.95 53.08C736.36 53.75 735.85 54.1 735.43 54.5C734.59 55.35 734.12 55.36 734.12 55.46C734.12 55.2 735.12 55.97 736.11 56.44C737.11 57.25 738.1 57.49 738.1 57.42C738.1 57.24 738.74 56.75 739.77 56.4C740.28 55.88 740.9 55.61 741.57 55.26C742.25 54.8 742.99 54.25 743.77 53.67C744.16 53.36 744.56 53.05 744.96 52.74C745.36 52.43 745.77 52.11 746.17 51.79C746.98 51.18 747.8 50.39 748.59 49.74C749.38 48.9 750.14 48.15 750.84 47.45C751.54 46.66 752.18 45.85 752.73 45.1C752.55 46.58 752.36 47.98 752.14 49.28C751.93 50.87 751.7 52.25 751.47 52.88C751.35 53.37 751.24 53.87 751.12 54.37C751 54.87 750.89 55.45 750.77 55.83C750.54 56.8 750.31 57.83 750.09 58.56C749.87 59.23 749.66 60.29 749.47 60.53C749.28 60.66 749.11 61.82 748.97 62.04C748.68 62.59 748.51 62.94 748.51 63.22C748.51 62.82 749.52 63.08 750.87 62.57C751.54 62.38 752.3 62.23 753.06 62.05C753.82 61.9 754.57 61.86 755.25 61.37C756.6 60.53 757.61 61.53 757.61 60.72C757.73 59.39 757.84 59.26 757.94 59.3C758.05 58.82 758.15 58.33 758.24 57.86C758.43 56.86 758.6 56.18 758.75 54.35C758.9 53.21 759.03 51.56 759.14 50.27C759.25 49.04 759.34 47.43 759.42 45.74C760.15 46.27 761.08 47.19 762.09 48.25C763.1 49.22 764.19 50.58 765.24 51.94C766.29 53.32 767.31 54.83 768.17 56.67C769.09 56.72 770.49 56.74 771.66 56.91C772.83 57.13 773.76 57.09 773.76 57.08C773.76 57.11 773.86 55.48 773.96 53.86C774.06 52.16 774.16 50.6 774.16 50.64C774.16 50.73 773.55 50.39 772.56 49.33C772.06 49.15 771.47 48.54 770.82 47.95C770.16 47.52 769.44 46.68 768.68 46.23C767.92 45.41 767.12 45.11 766.32 44.43C765.51 43.52 764.7 43.26 763.91 42.58C763.12 42.08 762.35 41.43 761.62 40.95C760.9 40.31 760.23 39.84 759.63 39.65C759.6 39.7 759.57 39.58 759.54 39.6C759.54 39.55 759.64 39.52 759.64 39.6C759.64 39.5 760.09 39.5 760.77 39.6C761.45 39.6 762.35 39.68 763.25 39.58C764.15 39.56 765.05 39.44 765.73 39.55C766.41 39.59 766.86 39.45 766.86 39.55C766.86 39.72 766.86 40.45 766.84 41.2C766.84 41.68 766.82 42.88 766.82 42.85C766.82 42.94 767.17 42.82 767.7 42.53C768.23 42.47 768.94 42.01 769.64 41.61C770.35 41.3 771.05 41.01 771.58 40.71C772.11 40.58 772.46 40.41 772.46 40.37C772.46 40.56 772.44 39.04 772.41 37.73C772.4 36.73 772.38 35.95 772.37 35.26C772.36 34.33 772.34 33.39 772.33 32.83C772.3 31.56 772.28 30.37 772.28 30.19C772.27 29.53 772.35 28.62 772.53 27.86C772.71 27.16 772.98 26.42 773.34 25.67C773.34 25.57 774.47 23.6 774.47 23.48H774.42ZM743.92 35.07V27.55C743.92 27.73 744.97 27.51 746.37 27.49C747.07 27.39 747.85 27.13 748.64 27.44C749.43 27.14 750.21 27.5 750.91 27.39C752.31 27.49 753.36 27.44 753.36 27.33C753.41 28.31 753.44 29.45 753.46 30.46C753.48 31.59 753.48 32.78 753.46 33.67C753.46 33.94 753.44 34.39 753.43 34.82C753.43 34.97 752.37 35.03 750.97 34.88C750.27 34.88 749.47 35.06 748.68 34.95C747.89 35.08 747.1 35.08 746.39 35C744.98 34.97 743.93 34.72 743.93 35.06L743.92 35.07ZM766.86 34.47C766.86 34.05 766.41 34.21 765.73 34.49C765.05 34.51 764.15 34.2 763.25 34.56C762.35 34.86 761.45 34.59 760.77 34.62C760.09 34.69 759.64 34.6 759.64 34.65C759.64 34.16 759.64 33.69 759.64 32.8C759.64 32.16 759.64 31.94 759.64 30.93C759.64 30.35 759.64 29.21 759.63 29.06C759.63 28.69 759.62 27.96 759.61 27.18C759.61 27.26 760.07 27.24 760.75 27.13C761.44 27.01 762.35 27.09 763.27 27.1C764.19 26.7 765.1 27.07 765.79 27.04C766.48 27.19 766.93 27.36 766.93 27.01C766.93 26.92 766.93 27.51 766.92 28.2C766.92 29.03 766.9 30.03 766.89 30.74C766.88 31.45 766.87 32.4 766.86 33.23C766.86 33.92 766.85 34.19 766.85 34.46L766.86 34.47Z" fill="#FFFDFA"/>
<path d="M777.09 60.07C777.09 59.95 776.9 60.43 776.59 60.95C776.28 61.49 775.84 62.43 775.35 63.41C775.1 63.55 774.84 64.33 774.57 64.86C774.3 65.24 774.02 66.04 773.74 66.51C773.46 67.07 773.18 67.63 772.91 68.12C772.64 68.81 772.37 68.91 772.13 69.61C771.63 70.15 771.2 71.62 770.89 71.99C770.58 72.47 770.39 72.9 770.39 72.94C770.39 72.87 769.73 73.41 768.57 73.61C767.99 74.07 767.28 74.17 766.47 74.27C765.66 74.5 764.73 74.75 763.72 74.99C763.22 75.05 762.69 74.63 762.14 75.26C761.59 75.26 761.03 75.43 760.44 75.62C759.86 76.03 759.26 75.89 758.64 75.97C758.02 76.05 757.39 76.09 756.75 76.12C756.27 76.02 755.78 76.14 755.28 76.19C754.79 76.4 754.28 76.28 753.78 76.28C753.27 76.22 752.76 76.21 752.25 76.28C751.74 76.25 751.22 76.31 750.69 76.22C749.65 76.07 748.59 75.94 747.53 75.76C746.47 75.58 745.41 75.4 744.35 75.25C743.82 75.2 743.29 74.96 742.77 74.79C742.24 74.58 741.72 74.53 741.2 74.23C740.68 74.1 740.16 73.74 739.65 73.55C739.14 73.32 738.63 73.08 738.12 72.79C737.62 72.37 737.12 72.03 736.62 71.87C736.13 71.45 735.64 71.29 735.16 70.93C734.68 70.84 734.21 70.36 733.74 70.04C733.28 69.9 732.82 69.17 732.37 68.45C731.92 67.87 731.48 67.56 731.06 66.93C730.63 66.4 730.21 65.87 729.81 65.44C729 64.46 728.23 62.99 727.51 61.81C727.51 61.81 727.04 62.06 726.4 62.74C725.97 63.19 725.47 63.79 724.97 64.72C724.72 65.25 724.48 65.77 724.25 66.39C724.02 66.99 723.81 67.62 723.61 68.14C723.42 68.73 723.25 69.37 723.13 70.44C723 71.39 722.91 72.39 722.86 73.31C722.08 72.97 721.35 71.81 720.69 71.52C720.03 71.22 719.43 70.12 718.89 69.96C718.35 69.5 717.88 69.09 717.48 68.51C717.08 68.03 716.75 67.55 716.49 67.04C715.98 65.91 715.76 64.77 715.86 63.58C716.47 62.6 717.53 61.5 718.67 60.22C719.24 59.74 719.83 59.3 720.39 58.89C720.95 58.63 721.49 58.18 721.96 57.73C722.89 57.16 723.55 56.72 723.55 56.76C723.55 56.94 723.42 56.27 723.26 55.07C723.18 54.4 723.1 53.99 723.02 52.9C722.94 53.55 722.87 50.91 722.82 50.63C722.79 51.12 722.77 46.67 722.76 49.1C722.75 48.96 722.74 46.32 722.74 47.56C722.74 50.92 722.74 46.67 722.77 45.97C722.79 41.46 722.81 46.56 722.85 44.4C722.89 45.24 722.94 41.45 723 42.67C723.06 41.46 723.14 41.17 723.23 40.91C723.32 40.97 723.42 39.6 723.55 39.12C723.67 38.36 723.81 37.99 723.96 37.32C723.96 37.49 723.46 37.19 722.71 37.19C721.96 37 720.96 37.13 719.95 37C718.95 36.8 717.94 36.87 717.19 36.78C716.44 37.03 715.94 36.66 715.94 36.68C715.94 36.37 715.5 35.77 714.91 34.59C714.62 33.8 714.29 33.27 713.96 32.65C713.63 32.13 713.3 31.14 713.01 30.71C712.42 29.65 711.98 28.65 711.98 28.62C711.98 28.62 712.92 29.07 714.37 29.3C715.1 29.8 715.95 29.7 716.88 29.98C717.34 29.99 717.83 30.35 718.32 30.43C718.82 30.6 719.32 30.72 719.84 30.75C720.35 30.91 720.87 31.01 721.39 31.11C721.91 31.21 722.43 31.32 722.94 31.49C723.45 31.64 723.95 31.75 724.44 31.83C724.93 31.91 725.4 32.07 725.86 32.06C726.15 31.28 726.47 30.89 726.82 30.26C727.17 29.58 727.54 29.19 727.95 28.54C727.95 28.6 728.7 29.09 729.69 30.07C730.19 30.58 730.75 31.1 731.31 31.48C731.87 32.11 732.43 32.51 732.93 32.91C733.93 33.64 734.67 33.58 734.67 34.44C734.67 34.09 734.48 35.24 734.19 35.6C734.04 35.83 733.87 36.34 733.68 36.94C733.49 37.56 733.28 38.01 733.06 38.84C732.84 39.66 732.62 40.41 732.4 41.16C732.18 42.29 731.97 42.05 731.76 43.79C731.66 44.44 731.56 44.34 731.47 45.18C731.38 45.79 731.29 45.93 731.21 46.79C731.13 47.06 731.05 48.34 730.98 48.4C730.91 49.62 730.85 50.07 730.79 50.08C730.68 51.59 730.61 52.55 730.58 53.62C730.55 54.74 730.56 56.08 730.63 57.36C730.66 58.04 730.82 58.71 731.07 59.33C731.32 59.95 731.69 60.49 732.16 61.02C732.53 61.4 732.92 61.77 733.34 62.25C733.75 62.45 734.19 62.83 734.64 63.1C735.09 63.25 735.18 63.68 735.81 64.08C736.3 64.69 736.56 64.73 737.08 64.93C737.6 65.05 737.74 65.16 738.28 65.48C738.82 65.68 739.76 66.02 740.33 66.13C741.18 66.23 741.61 66.22 742.51 66.59C743.41 66.7 744.41 66.87 745.34 66.92C746.27 67.12 747.25 67.16 748.2 67.12C749.15 67.12 750.4 67.11 751.36 67.09C752.32 66.85 753.79 66.84 754.74 66.76C755.22 66.76 765.98 64.95 766.49 64.38C767.38 64.17 769.12 63.53 769.91 63.27C770.7 62.85 771.94 62.3 772.61 62C773.28 61.92 774.02 61.21 774.55 60.99C775.08 60.98 775.54 60.49 775.91 60.49C776.65 59.98 777.06 60.09 777.06 60.05L777.09 60.07Z" fill="#FFFDFA"/>
</g>
<defs>
<clipPath id="clip0_188_320">
<rect width="777.09" height="151.02" fill="white"/>
</clipPath>
</defs>
</svg>
