<svg width="328" height="379" viewBox="0 0 328 379" fill="none" xmlns="http://www.w3.org/2000/svg">
<path d="M201.528 193.213C201.528 193.213 201.528 193.319 201.528 193.373C201.421 193.319 201.341 193.266 201.235 193.213H201.528Z" fill="#0C0C0D"/>
<path d="M82.7567 94.9492C82.7567 94.3896 84.2753 96.0949 86.7264 97.134C87.9519 97.4537 89.4439 98.2264 91.0957 99.8783C92.7475 101.157 94.5592 102.463 96.5041 103.982C98.4223 106.086 100.474 106.433 102.552 109.257C103.591 110.856 104.63 110.696 105.696 112.401C106.735 114.453 107.8 115.412 108.839 115.918C109.879 116.638 110.918 117.703 111.93 119.622C112.942 120.528 113.955 122.1 114.941 123.885C115.926 125.403 116.885 126.256 117.791 128.521C118.724 129.693 119.603 131.958 120.456 133.397C119.416 136.008 118.271 137.527 117.099 140.511C115.953 142.589 114.807 144.8 113.768 147.198C111.717 150.342 110.198 153.62 110.198 154.126C110.198 154.632 109.133 153.993 107.561 153.007C105.989 152.074 103.884 151.595 101.779 150.049C99.6745 148.264 97.5698 147.891 95.9979 147.252C94.426 146.559 93.3603 145.653 93.3603 145.973C93.3603 146.159 93.0673 144.587 92.3213 141.896C91.9483 140.484 91.4421 138.432 90.8293 137.1C90.1899 135.235 89.4439 134.249 88.5114 130.892C87.8986 129.64 87.2059 128.095 86.46 126.336C85.714 124.577 84.8614 122.686 83.9556 120.634C83.0497 119.115 82.0373 117.197 80.945 114.799C79.8527 112.028 78.6804 111.122 77.4016 108.724C76.1228 106.566 74.764 104.568 73.2987 102.303C71.8333 100.624 70.2615 98.0132 68.583 95.6686C68.583 95.5353 72.1264 95.8551 75.6432 95.2689C79.1866 95.4554 82.7034 94.8159 82.7034 94.8692L82.7567 94.9492Z" fill="#0C0C0D"/>
<path d="M309.269 162.652C309.083 156.231 308.87 159.668 308.603 154.819C308.337 140.617 305.779 133.85 305.273 132.011C304.767 128.734 304.234 125.883 303.648 124.924C303.062 122.472 300.318 114.506 299.518 110.376C298.799 109.87 298.053 106.699 297.254 103.928C296.454 100.464 295.602 98.7059 294.723 97.6934C293.843 91.1656 286.597 82.373 285.425 79.5221C284.252 78.2165 283.027 76.6445 281.748 73.9001C280.469 72.035 279.137 70.1433 277.778 68.3049C276.419 66.4664 274.981 64.7345 273.489 63.1625C270.532 60.0452 267.361 56.5548 263.951 53.464C260.487 50.5598 256.891 46.9362 253.161 44.9379C249.431 42.4067 245.541 40.8347 241.571 37.8506C237.575 35.8256 233.499 33.9605 229.316 32.0954C225.133 29.6441 220.844 28.6317 216.501 27.6192C212.158 26.4735 207.736 24.8215 203.26 24.3419C198.784 23.3561 194.255 22.9831 189.725 22.1571C185.516 21.571 181.333 20.6917 177.097 21.0647C172.887 20.292 168.678 21.3045 164.442 20.745C164.442 21.1713 164.229 21.6242 164.229 20.745C164.042 20.7183 163.856 21.1446 163.643 20.745C158.661 20.9581 153.678 20.8516 148.696 21.4644C143.714 22.4769 138.732 21.8108 133.803 23.1163C128.874 23.4627 123.972 24.5551 119.123 25.8873C116.699 26.5001 114.301 27.2195 111.93 27.9389C109.559 28.6583 107.188 29.3511 104.843 29.9372C102.499 29.2445 93.3603 32.7615 91.1224 35.4526C88.8844 36.7581 80.2256 38.6765 78.1209 42.6199C76.0162 43.7389 73.9647 44.2718 71.9399 46.8829C69.9151 49.0145 67.9436 50.0003 65.9987 51.6256C64.0805 53.4374 62.2154 54.3167 60.4571 56.7679C58.672 58.3932 56.967 60.4182 55.3418 62.3099C53.7166 63.5089 52.1447 65.6671 50.626 67.7986C49.1341 69.0242 47.6954 71.8752 46.31 74.3264C44.9246 76.9109 43.6192 79.4688 42.367 80.8809C41.1148 82.4263 39.9159 86.6893 38.7969 87.4354C37.6513 89.6468 36.5856 90.7126 35.5732 94.0698C34.5608 96.521 30.8841 104.514 30.0849 108.484C29.259 112.161 28.513 113.387 27.7937 115.918C27.0743 116.957 26.4082 122.526 25.7688 123.325C25.1294 125.99 24.5433 126.842 24.0104 130.785C23.4776 134.649 22.9714 135.608 22.4918 137.846C22.0389 139.658 21.6127 141.763 21.213 145.706C20.8134 148.717 20.4671 152.127 20.1473 153.273C19.8276 157.083 19.5345 160.44 19.2681 160.467C19.0283 161.08 18.8418 166.782 18.6553 166.915C18.4955 169.713 18.3357 175.121 18.2291 173.789C18.1225 175.974 18.0425 180.877 17.9892 180.53C17.936 182.688 17.9094 184.234 17.936 187.138C17.936 190.762 17.9893 192.973 18.0426 194.172C18.0959 199.714 18.2025 199.368 18.309 200.46C18.4422 199.687 18.5754 204.057 18.7619 207.228C18.9484 210.025 19.1349 210.958 19.348 213.782C19.5612 217.033 19.8276 217.059 20.094 220.63C20.3604 225.159 20.6535 222.148 20.9998 227.051C21.3195 228.996 22.7316 234.991 23.1313 239.92C23.5309 245.675 23.9571 243.251 24.4101 246.421C24.863 248.686 28.6728 264.859 29.3122 265.392C29.9516 266.857 30.6177 269.682 31.3371 271.627C32.0564 273.438 32.8024 275.863 33.6017 277.755C34.4009 279.194 35.2268 282.364 36.0794 283.803C36.9586 285.588 37.8644 287.72 38.8235 289.718C41.0881 294.354 43.5659 298.244 46.2834 302.907C49.0009 306.824 51.9582 311.326 55.102 314.817C58.2458 318.014 61.6294 321.451 65.1728 325.421C68.7162 328.752 72.4728 331.949 76.3892 334.64C80.3056 337.305 84.4085 340.262 88.6446 342.42C92.9074 345.138 97.3034 346.87 101.859 348.708C106.415 350.573 111.104 351.666 115.9 353.451C118.297 354.41 120.749 354.783 123.2 355.13C125.651 355.476 128.155 357.634 130.686 356.568C133.164 355.13 135.668 356.861 138.173 357.794C140.677 357.98 166.2 358.7 168.758 358.593C171.316 358.487 173.9 358.327 176.484 358.167C181.626 357.634 186.768 357.607 191.857 356.302C196.945 354.996 202.008 353.424 207.016 353.211C209.521 352.412 211.998 351.879 214.449 351.266C216.901 350.653 219.352 349.961 221.776 348.841C224.2 348.095 226.598 347.456 228.969 345.964C231.341 344.605 233.685 343.646 236.003 343.193C238.321 342.767 240.612 341.008 242.85 339.809C245.088 338.85 247.326 337.944 249.511 336.212C251.562 335.04 253.587 333.415 255.585 332.402C257.583 330.937 259.528 329.285 261.42 328.272C263.311 326.78 265.176 325.075 266.988 323.45C268.8 322.624 270.558 320.652 272.263 318.973C273.968 312.819 280.363 311.3 281.828 308.396C283.32 307.809 288.728 302.267 289.954 296.619C291.259 293.475 292.485 292.782 293.604 290.597C294.723 288.412 295.788 285.988 296.774 283.03C298.746 278.234 300.398 274.318 301.81 268.776C302.529 266.324 303.168 263.9 303.754 261.475C304.341 259.051 304.873 256.573 305.353 254.068C305.832 249.698 306.259 248.686 306.658 246.448C307.058 243.863 307.378 241.306 307.697 239.067C307.964 233.632 308.23 232.833 308.47 231.82C308.71 229.715 309.456 224.946 309.589 218.658C309.722 210.052 309.856 214.342 309.962 211.544C310.069 211.384 310.149 210.158 310.202 204.803C310.255 206.801 310.308 189.349 310.335 197.662C310.335 193.666 310.362 188.87 310.335 190.362C310.335 191.801 310.282 190.042 310.255 183.807C310.202 182.795 310.149 180.37 310.069 176.986C309.989 174.535 309.483 169.526 309.296 162.785L309.269 162.652ZM292.112 199.661C292.058 196.703 292.005 199.448 291.925 206.801C291.845 197.955 291.765 208 291.659 214.715C291.552 223.454 291.419 216.553 291.259 222.042C291.099 224.36 290.913 224.573 290.673 229.955C290.46 230.701 290.193 234.698 289.874 237.336C289.581 240.107 289.208 241.306 288.808 245.142C288.408 246.954 287.956 249.672 287.449 253.162C286.943 255.667 286.357 258.011 285.718 260.036C284.439 265.525 282.894 269.149 281.029 274.344C280.096 276.716 279.084 279.06 277.965 281.325C276.846 282.764 275.674 282.018 274.368 287.826C273.063 292.409 271.677 289.905 270.185 294.008C268.693 295.313 256.171 310.261 254.946 310.341C253.72 311.22 252.441 312.126 251.163 313.485C248.605 315.883 245.941 317.828 243.223 319C241.172 320.226 239.094 321.185 236.962 322.81C234.831 323.929 232.673 324.995 230.461 325.981C228.25 328.192 226.039 328.965 223.774 329.258C221.51 329.764 219.219 331.23 216.927 331.469C214.609 332.269 212.291 333.041 209.947 333.734C207.602 334.427 205.231 335.066 202.86 335.573C198.091 337.278 193.295 337.251 188.5 338.424C183.704 339.782 178.882 340.369 174.113 340.102C168.731 340.555 163.323 340.475 157.915 340.688C152.506 340.582 147.124 339.782 141.796 339.809C136.467 339.063 131.166 338.717 125.997 337.251C120.802 336.479 115.74 334.8 110.784 332.802C105.829 330.963 101.033 329.818 96.4241 326.274C91.815 323.982 87.3658 320.199 83.1563 317.481C78.9469 313.911 74.9772 310.5 71.2472 306.211C68.0235 302.747 65.0929 300.376 62.4286 294.7C59.7378 289.825 57.3133 286.414 55.1286 282.151C54.0363 279.94 52.9973 277.675 52.0115 275.41C51.0257 273.145 50.0932 271.147 49.2407 268.749C48.3615 266.538 47.5356 264.539 46.763 261.795C45.9903 261.209 45.271 258.571 44.6049 254.734C43.9389 250.524 43.2995 247.38 42.7134 247.487C42.1272 247.327 41.5944 243.277 41.0881 240.32C40.5819 232.966 40.129 234.192 39.7294 232.566C39.3031 228.277 36.5856 206.322 36.4524 203.764C36.2926 200.167 36.186 200.38 36.0794 196.81C35.9728 196.037 35.9195 193.932 35.8929 188.95C35.8662 187.511 35.8929 184.234 35.9195 181.623C35.9728 180.104 36.0528 175.974 36.186 174.136C36.3192 169.313 37.1451 161.426 37.4382 158.735C37.7312 155.538 39.2499 145.52 39.7028 143.415C40.1557 140.004 40.6885 137.873 41.2213 136.487C41.7542 134.862 42.3404 131.345 42.9531 129.24C43.5659 126.682 44.2053 123.965 44.898 122.02C45.5907 119.382 46.3367 116.291 47.1093 114.985C47.882 113.36 48.7345 108.538 49.6137 107.738C50.4929 106.566 51.452 102.702 52.4644 100.651C53.4768 98.7592 54.5425 95.6418 55.6615 94.0165C56.8071 91.6185 58.006 89.4603 59.2848 87.4087C60.5636 85.3838 61.8958 82.9592 63.3345 81.2006C64.7732 78.856 66.3184 77.0974 67.8903 75.0991C69.4888 73.0209 71.1406 71.2091 72.8724 69.7969C74.6041 68.0118 76.3892 66.6796 78.2542 64.8145C80.1191 62.9227 94.5326 52.9845 102.978 50.0802C105.216 49.7871 121.495 43.3126 123.892 43.0195C128.688 42.1403 133.537 40.3551 138.439 40.4084C142.728 39.5824 147.018 38.49 151.334 39.1828C155.65 39.0762 159.966 39.3693 164.282 38.6765C164.282 38.9963 164.282 38.5433 164.282 38.6765C169.531 39.1828 174.779 39.0229 180.028 39.2094C185.276 39.8222 190.498 40.062 195.667 41.0745C200.835 41.4475 205.951 42.9396 210.959 44.5382C215.968 45.9237 220.897 47.3625 225.693 49.8404C230.488 51.8654 235.151 54.4232 239.626 57.2742C243.889 60.7379 247.832 62.4964 251.509 66.2799C255.186 69.1841 258.542 72.9942 261.66 76.8843C263.205 78.4829 264.697 80.3747 266.136 82.3996C267.548 87.3554 268.906 85.3838 270.212 88.8475C271.517 93.6968 272.743 92.5777 273.915 95.6151C275.087 97.0006 276.18 100.944 277.245 101.983C278.231 106.086 279.164 99.8249 280.043 108.031C280.922 110.669 283.959 118.449 284.625 121.7C285.291 121.726 285.877 128.441 286.437 128.681C286.996 132.224 287.503 132.944 287.956 135.555C288.408 139.578 288.835 141.976 289.208 142.536C289.581 142.749 289.927 142.349 290.22 149.57C290.513 162.679 291.899 169.713 292.005 170.885C292.112 171.791 292.192 171.897 292.245 177.786C292.272 175.867 292.298 181.543 292.298 177.759C292.298 178.265 292.325 183.701 292.325 185.273C292.325 190.282 292.325 193.719 292.325 192.307C292.325 188.23 292.272 201.632 292.218 199.714L292.112 199.661Z" fill="#0C0C0D"/>
<path d="M247.193 143.575C247.193 143.575 244.768 142.136 241.491 139.498C239.839 138.512 237.974 136.7 236.083 135.235C234.191 133.556 232.273 132.278 230.541 130.386C228.676 132.384 226.971 133.716 225.346 135.208C223.721 136.168 222.149 137.66 220.577 138.752C219.005 140.191 217.407 140.244 215.728 140.67C214.05 140.937 212.265 141.443 210.293 141.23C210.293 141.363 208.082 141.576 205.844 141.63C203.606 141.683 201.395 141.39 201.395 141.123C201.341 139.338 201.315 137.899 201.261 135.821C201.208 134.303 201.155 132.118 201.102 130.412C201.048 129.213 200.995 127.402 200.915 125.137C200.862 122.979 200.782 121.087 200.729 119.915C202.354 120.368 204.006 120.314 205.657 120.154C207.309 121.167 208.934 120.314 210.56 120.261C212.185 120.581 213.81 119.808 215.409 120.288C217.007 121.194 218.605 119.861 220.151 120.607C221.723 120.448 223.268 120.607 224.76 120.741C226.278 121.034 227.744 120.714 229.209 120.847C232.087 121.46 234.831 121.167 237.362 121.22C239.893 121.513 242.237 121.433 244.289 121.38C246.34 121.327 248.178 121.3 249.67 121.673C252.654 122.286 254.36 121.22 254.36 121.86C254.36 121.753 252.575 119.861 250.23 114.985C249.058 113.227 247.726 111.255 246.393 108.751C245.061 106.832 243.729 103.848 242.557 102.223C240.186 98.8924 238.427 94.8691 238.427 95.3487C238.427 96.6276 236.056 96.8674 231.9 99.9581C229.822 100.411 227.317 103.608 224.44 103.129C223.001 104.115 221.483 104.354 219.884 104.354C218.286 104.514 216.581 104.727 214.822 104.648C213.543 104.328 211.812 105.42 209.734 104.648C207.656 104.301 205.178 104.488 202.434 104.514C202.913 102.782 203.499 101.13 204.165 99.9315C204.165 100.491 205.338 97.8799 206.51 94.6826C207.682 92.0448 208.854 89.034 208.854 89.4337C208.854 88.8742 206.297 87.9416 202.434 86.5828C200.515 86.3696 198.251 85.0108 195.853 84.1581C193.455 82.8526 190.871 82.1332 188.313 80.348C185.756 78.8826 183.171 78.4563 180.773 77.0441C178.376 76.5379 176.111 74.3264 174.193 74.1133C170.33 72.0617 167.772 72.0617 167.772 71.2624C167.772 71.662 168.252 72.6745 168.998 75.2323C169.371 76.7244 169.85 78.0833 170.356 79.6286C170.863 82.746 171.449 83.8118 172.035 86.3696C172.648 88.1015 173.287 91.0323 173.926 93.9366C174.246 95.0556 174.592 96.6809 174.912 98.4128C175.232 100.145 175.578 102.01 175.898 103.582C173.5 103.635 171.049 103.395 168.598 103.102C166.12 101.903 163.642 103.022 161.138 102.836C158.634 103.102 156.129 103.129 153.625 102.383C151.121 102.409 148.643 102.463 146.192 101.877C143.741 101.77 141.29 101.583 138.918 101.397C136.521 101.477 134.203 100.891 131.912 100.757C127.356 99.6118 123.04 100.091 119.123 99.3986C117.178 99.292 115.313 99.1588 113.555 98.919C111.823 98.8124 110.198 98.173 108.679 97.8533C108.679 98.173 110.864 99.8782 113.741 103.555C115.18 104.621 116.832 105.9 118.457 108.404C120.082 110.216 121.708 112.268 123.173 114.186C126.077 117.89 128.235 119.462 128.235 119.888C128.235 119.835 129.354 119.755 131.645 119.355C132.791 119.169 134.229 119.089 135.988 118.902C137.72 119.142 139.771 118.556 142.142 118.503C144.487 118.076 147.151 118.396 150.135 118.209C153.119 118.236 156.396 118.369 159.993 118.449C162.204 118.503 164.948 119.009 168.092 118.716C169.664 118.769 171.342 118.343 173.1 118.982C174.859 119.435 176.697 119.328 178.589 119.062C178.855 120.501 179.095 122.766 179.361 123.991C179.601 125.11 179.841 127.961 180.081 129.613C180.294 131.905 180.534 132.97 180.72 135.422C180.933 137.207 181.12 138.539 181.28 140.884C181.28 140.697 178.163 140.484 174.006 140.804C171.928 141.257 169.584 140.484 167.266 140.644C164.921 140.218 162.603 140.67 160.525 140.644C156.369 140.404 153.252 140.404 153.252 140.564C153.252 140.67 153.252 135.768 153.252 135.901C153.252 135.821 148.536 133.929 143.821 131.318C139.105 129.933 134.389 127.002 134.389 126.736C134.389 126.736 134.416 128.92 134.496 132.89C134.522 134.755 134.576 137.207 134.602 139.871C134.656 138.779 134.682 143.601 134.736 148.264C134.736 145.839 134.789 146.532 134.816 152.98C134.816 144.347 134.869 159.481 134.895 157.776C134.922 161.853 134.949 166.702 134.975 163.078C135.002 164.597 135.029 175.761 135.055 168.3C135.082 173.15 135.109 176.214 135.135 173.603C135.162 174.029 135.188 171.125 135.215 178.585C135.242 177.626 135.268 181.463 135.295 183.541C135.295 185.992 135.348 186.339 135.375 188.284C135.428 191.508 135.482 194.279 135.508 196.783C135.562 199.527 135.588 201.526 135.615 203.657C135.668 205.469 135.721 210.372 135.721 209.812C135.721 209.093 136.814 210.238 138.465 208.48C140.117 207.654 142.302 206.881 144.487 205.256C146.671 204.936 148.883 202.538 150.508 202.245C152.16 200.62 153.252 200.833 153.252 200.7C153.252 202.405 153.252 193.506 153.252 193.533C153.252 193.479 156.582 192.866 159.939 193.479C163.27 193.932 166.626 193.293 166.626 193.426C165.481 195.318 164.309 197.076 163.19 198.728C162.044 200.194 160.925 201.366 159.779 203.444C158.66 205.389 157.541 205.869 156.449 208.027C155.357 209.013 154.264 209.386 153.199 212.157C151.76 211.784 150.375 214.555 149.016 217.432C147.657 218.711 146.325 218.711 145.02 221.829C143.714 224.52 142.462 224.653 141.263 225.426C140.037 226.651 138.892 227.957 137.773 229.502C135.535 230.941 133.483 232.833 131.672 234.751C129.86 236.803 128.288 237.895 127.009 239.121C124.425 241.732 122.96 241.758 122.96 242.078C122.96 241.279 126.024 243.65 129.087 245.089C132.151 247.594 135.215 248.34 135.215 248.1C135.215 247.54 137.187 246.048 140.357 244.956C141.929 243.357 143.821 242.531 145.899 241.439C147.977 240.027 150.268 238.348 152.666 236.563C153.865 235.604 155.09 234.644 156.316 233.685C157.541 232.726 158.794 231.74 160.046 230.754C162.55 228.889 165.055 226.465 167.506 224.44C169.93 221.855 172.275 219.537 174.433 217.379C176.591 214.928 178.562 212.45 180.241 210.132C179.708 214.688 179.095 218.978 178.429 223.001C177.79 227.877 177.07 232.14 176.377 234.112C176.031 235.63 175.658 237.149 175.312 238.694C174.965 240.24 174.592 242.025 174.219 243.197C173.5 246.181 172.781 249.352 172.115 251.617C171.449 253.668 170.809 256.946 170.223 257.665C169.637 258.065 169.104 261.635 168.678 262.328C167.799 264.006 167.266 265.099 167.266 265.978C167.266 264.752 170.383 265.552 174.513 263.98C176.591 263.394 178.909 262.941 181.253 262.381C183.598 261.928 185.915 261.795 187.994 260.276C192.15 257.692 195.24 260.782 195.24 258.278C195.587 254.175 195.933 253.775 196.253 253.908C196.572 252.416 196.892 250.924 197.185 249.485C197.771 246.395 198.278 244.316 198.757 238.668C199.21 235.151 199.61 230.088 199.956 226.118C200.302 222.335 200.595 217.352 200.835 212.157C203.1 213.782 205.95 216.633 209.068 219.884C212.185 222.868 215.515 227.051 218.765 231.234C222.016 235.497 225.133 240.107 227.797 245.782C230.648 245.915 234.937 245.995 238.534 246.501C242.131 247.167 245.008 247.061 245.008 247.007C245.008 247.114 245.328 242.078 245.621 237.096C245.94 231.873 246.234 227.051 246.234 227.184C246.234 227.451 244.342 226.411 241.305 223.134C239.786 222.575 237.974 220.71 235.95 218.871C233.925 217.539 231.714 214.954 229.369 213.569C227.025 211.064 224.573 210.105 222.096 208.027C219.618 205.229 217.114 204.43 214.662 202.352C212.211 200.806 209.84 198.808 207.629 197.316C205.418 195.344 203.339 193.906 201.501 193.319C201.395 193.479 201.315 193.106 201.208 193.16C201.208 193 201.501 192.92 201.501 193.16C201.501 192.84 202.887 192.866 204.965 193.133C207.043 193.159 209.813 193.399 212.611 193.08C215.382 193.026 218.153 192.627 220.257 193C222.336 193.133 223.721 192.707 223.721 193C223.721 193.506 223.694 195.771 223.668 198.089C223.641 199.554 223.614 203.258 223.614 203.178C223.614 203.444 224.707 203.098 226.332 202.165C227.957 201.979 230.142 200.567 232.326 199.341C234.511 198.382 236.669 197.476 238.321 196.57C239.946 196.17 241.038 195.637 241.038 195.531C241.038 196.144 240.985 191.428 240.905 187.404C240.879 184.314 240.825 181.916 240.772 179.811C240.719 176.933 240.692 174.056 240.639 172.324C240.559 168.407 240.505 164.757 240.505 164.197C240.452 162.172 240.719 159.375 241.278 157.03C241.811 154.872 242.663 152.607 243.756 150.289C243.756 149.969 247.219 143.894 247.219 143.548L247.193 143.575ZM153.332 179.225V156.071C153.332 156.63 156.556 155.938 160.872 155.884C163.03 155.591 165.454 154.765 167.852 155.724C170.276 154.819 172.701 155.911 174.832 155.565C179.148 155.884 182.372 155.698 182.372 155.378C182.532 158.415 182.638 161.906 182.665 165.023C182.718 168.514 182.718 172.164 182.665 174.908C182.665 175.734 182.612 177.12 182.585 178.452C182.585 178.905 179.335 179.091 174.992 178.638C172.834 178.638 170.383 179.198 167.959 178.852C165.507 179.225 163.083 179.251 160.925 179.011C156.582 178.932 153.332 178.159 153.332 179.198V179.225ZM223.934 177.386C223.934 176.081 222.549 176.587 220.47 177.439C218.392 177.493 215.622 176.56 212.851 177.679C210.08 178.612 207.309 177.786 205.231 177.866C203.153 178.079 201.768 177.812 201.768 177.946C201.768 176.427 201.768 174.988 201.768 172.244C201.768 170.272 201.768 169.579 201.768 166.489C201.768 164.704 201.768 161.186 201.741 160.707C201.741 159.561 201.714 157.323 201.688 154.925C201.688 155.192 203.1 155.085 205.204 154.765C207.309 154.392 210.133 154.632 212.957 154.659C215.781 153.433 218.606 154.552 220.71 154.472C222.815 154.952 224.227 155.458 224.227 154.392C224.227 154.099 224.227 155.938 224.174 158.042C224.147 160.6 224.121 163.691 224.067 165.849C224.041 168.034 223.987 170.965 223.961 173.523C223.934 175.654 223.907 176.48 223.907 177.333L223.934 177.386Z" fill="#0C0C0D"/>
<path d="M255.452 256.226C255.452 255.853 254.866 257.319 253.933 258.944C252.974 260.623 251.642 263.5 250.097 266.511C249.324 266.964 248.525 269.362 247.672 270.961C246.846 272.133 245.967 274.584 245.115 276.05C244.262 277.755 243.383 279.513 242.557 281.005C241.731 283.137 240.905 283.43 240.133 285.588C238.614 287.267 237.255 291.77 236.296 292.942C235.337 294.407 234.777 295.766 234.777 295.873C234.777 295.633 232.753 297.312 229.183 297.924C227.398 299.337 225.213 299.656 222.709 299.949C220.204 300.642 217.353 301.441 214.263 302.161C212.718 302.347 211.093 301.068 209.414 302.987C207.736 302.987 205.977 303.52 204.192 304.106C202.407 305.385 200.542 304.932 198.65 305.172C196.759 305.411 194.814 305.545 192.842 305.625C191.35 305.305 189.859 305.678 188.34 305.838C186.821 306.477 185.276 306.104 183.704 306.131C182.159 305.944 180.587 305.918 178.989 306.131C177.417 306.024 175.818 306.237 174.193 305.944C170.969 305.491 167.719 305.065 164.468 304.532C161.218 303.999 157.941 303.413 154.691 302.96C153.066 302.827 151.44 302.081 149.815 301.548C148.19 300.882 146.591 300.749 144.966 299.816C143.368 299.416 141.769 298.297 140.197 297.738C138.625 297.045 137.054 296.299 135.482 295.393C133.936 294.114 132.391 293.049 130.873 292.569C129.354 291.29 127.862 290.784 126.37 289.665C124.905 289.398 123.439 287.906 122.001 286.92C120.562 286.494 119.177 284.229 117.791 282.018C116.406 280.233 115.074 279.273 113.742 277.355C112.436 275.73 111.131 274.105 109.878 272.772C107.374 269.762 105.003 265.232 102.818 261.608C102.818 261.608 101.38 262.381 99.3814 264.486C98.0759 265.871 96.504 267.737 94.9854 270.561C94.2394 272.186 93.4667 273.785 92.774 275.703C92.0547 277.542 91.4153 279.513 90.8292 281.085C90.2431 282.897 89.7369 284.895 89.3372 288.173C88.9376 291.104 88.6445 294.168 88.5113 297.019C86.1135 295.979 83.8756 292.409 81.8241 291.503C79.7726 290.571 77.9343 287.187 76.2825 286.707C74.6306 285.268 73.192 284.043 71.9664 282.231C70.7409 280.766 69.7019 279.273 68.9292 277.701C67.3574 274.238 66.6647 270.721 67.011 267.044C68.9026 264.033 72.153 260.623 75.6697 256.706C77.4281 255.214 79.2398 253.882 80.9715 252.603C82.7033 251.803 84.3551 250.418 85.7938 249.032C88.6711 247.274 90.6694 245.915 90.6694 246.048C90.6694 246.608 90.2697 244.529 89.7901 240.826C89.5503 238.774 89.2839 237.495 89.0441 234.138C88.8044 236.137 88.5912 228.01 88.4313 227.157C88.3514 228.65 88.2982 214.954 88.2449 222.441C88.1916 221.989 88.165 213.889 88.165 217.699C88.165 228.037 88.165 214.954 88.2449 212.796C88.2982 198.915 88.3781 214.608 88.5113 207.947C88.6178 210.531 88.7777 198.888 88.9642 202.618C89.1507 198.888 89.3905 198.009 89.6569 197.183C89.9234 197.369 90.2697 193.133 90.616 191.667C90.989 189.323 91.4153 188.177 91.8949 186.152C91.8949 186.658 90.3496 185.752 88.0317 185.752C85.7138 185.166 82.6233 185.566 79.5328 185.166C76.4423 184.527 73.3518 184.767 71.0339 184.5C68.7161 185.273 67.1708 184.127 67.1708 184.18C67.1708 183.248 65.8121 181.383 64.0271 177.759C63.1212 175.335 62.1088 173.683 61.0964 171.791C60.084 170.192 59.0716 167.155 58.1657 165.823C56.3541 162.572 55.022 159.481 55.022 159.401C55.022 159.401 57.8993 160.787 62.3752 161.506C64.6131 163.052 67.2241 162.758 70.1015 163.611C71.5402 163.664 73.0321 164.757 74.5507 164.97C76.0693 165.503 77.6412 165.849 79.2131 165.956C80.785 166.435 82.3836 166.755 83.9821 167.075C85.5807 167.395 87.1792 167.714 88.7511 168.247C90.323 168.7 91.8682 169.047 93.3602 169.313C94.8521 169.579 96.3175 170.059 97.7296 170.032C98.6354 167.634 99.6211 166.435 100.687 164.49C101.752 162.385 102.925 161.213 104.177 159.188C104.177 159.375 106.468 160.893 109.532 163.878C111.077 165.45 112.782 167.048 114.514 168.221C116.246 170.166 117.978 171.391 119.496 172.617C122.56 174.855 124.851 174.668 124.851 177.306C124.851 176.24 124.265 179.784 123.359 180.877C122.906 181.569 122.374 183.141 121.761 185.006C121.175 186.925 120.535 188.284 119.869 190.841C119.203 193.373 118.511 195.664 117.844 197.982C117.178 201.472 116.512 200.726 115.873 206.082C115.553 208.08 115.26 207.787 114.967 210.372C114.674 212.263 114.408 212.69 114.141 215.354C113.875 216.18 113.662 220.123 113.448 220.337C113.235 224.093 113.049 225.479 112.889 225.506C112.569 230.142 112.33 233.126 112.223 236.403C112.116 239.84 112.17 243.997 112.383 247.94C112.489 250.045 112.942 252.07 113.742 253.988C114.541 255.907 115.66 257.558 117.098 259.184C118.244 260.356 119.443 261.502 120.722 262.967C122.001 263.58 123.333 264.752 124.718 265.578C126.104 266.031 126.37 267.364 128.342 268.616C129.833 270.481 130.659 270.641 132.258 271.227C133.856 271.573 134.283 271.92 135.961 272.932C137.64 273.545 140.517 274.584 142.275 274.931C144.913 275.25 146.218 275.197 148.989 276.343C151.76 276.689 154.851 277.222 157.701 277.355C160.552 277.968 163.589 278.075 166.52 277.968C169.451 277.968 173.287 277.915 176.244 277.861C179.202 277.115 183.731 277.089 186.662 276.849C188.127 276.849 221.27 271.254 222.842 269.522C225.586 268.882 230.941 266.911 233.365 266.111C235.79 264.832 239.626 263.1 241.678 262.195C243.729 261.955 246.02 259.743 247.646 259.077C249.271 259.024 250.683 257.532 251.829 257.532C254.12 255.96 255.372 256.306 255.372 256.173L255.452 256.226Z" fill="#0C0C0D"/>
</svg>
