<svg width="328" height="379" viewBox="0 0 328 379" fill="none" xmlns="http://www.w3.org/2000/svg">
<path d="M231.314 195.962C231.314 195.962 231.314 196.143 231.314 196.211C231.156 196.12 231.043 196.053 230.907 195.962H231.336H231.314Z" fill="#D1132F"/>
<path d="M58.5726 53.0651C58.5726 52.2517 60.7641 54.7143 64.3563 56.2506C66.1637 56.7024 68.31 57.8321 70.7048 60.2495C73.0996 62.102 75.7655 64.0224 78.5669 66.2139C81.3684 69.2864 84.328 69.7835 87.3554 73.8953C88.8691 76.1997 90.3828 75.9964 91.9191 78.4815C93.4553 81.4863 94.969 82.8645 96.4827 83.61C97.9964 84.6493 99.5101 86.2082 101.001 89.0096C102.492 90.32 103.938 92.6244 105.362 95.2225C106.785 97.4592 108.186 98.6792 109.519 101.978C110.852 103.672 112.162 106.971 113.404 109.072C111.891 112.867 110.219 115.081 108.525 119.419C106.853 122.446 105.181 125.677 103.69 129.156C100.73 133.743 98.5161 138.51 98.5161 139.21C98.5161 139.91 96.9798 139.029 94.6979 137.561C92.3935 136.205 89.3435 135.527 86.271 133.268C83.1984 130.67 80.1484 130.128 77.844 129.179C75.5396 128.162 74.0259 126.852 74.0259 127.326C74.0259 127.597 73.5966 125.293 72.5122 121.385C71.97 119.329 71.247 116.324 70.3433 114.426C69.4396 111.715 68.3326 110.269 66.977 105.389C66.0959 103.582 65.1019 101.322 63.9948 98.7921C62.8878 96.2618 61.6678 93.4829 60.3349 90.5007C59.0019 88.2641 57.556 85.4852 55.9745 82.006C54.393 77.9619 52.676 76.6516 50.846 73.1723C48.9935 70.032 47.0053 67.1176 44.8816 63.8417C42.7579 61.4017 40.4761 57.5836 38.0361 54.2173C38.0361 54.014 43.1646 54.4884 48.3157 53.6525C53.4442 53.9236 58.5952 52.9747 58.5952 53.0877L58.5726 53.0651Z" fill="#D1132F"/>
<path d="M297.736 123.779C297.736 123.938 294.211 121.678 289.422 117.86C287.027 116.437 284.316 113.771 281.582 111.647C278.826 109.23 276.047 107.355 273.517 104.598C270.806 107.49 268.343 109.433 265.948 111.625C263.576 113.003 261.294 115.194 259.012 116.776C256.73 118.854 254.403 118.945 251.963 119.555C249.501 119.939 246.925 120.662 244.056 120.368C244.056 120.549 240.825 120.865 237.595 120.955C234.364 121.046 231.133 120.594 231.133 120.232C231.065 117.634 230.998 115.556 230.93 112.506C230.862 110.292 230.772 107.129 230.704 104.644C230.614 102.927 230.546 100.261 230.455 96.9622C230.365 93.7993 230.275 91.0882 230.184 89.3712C232.557 90.0263 234.951 89.936 237.346 89.7326C239.741 91.2011 242.113 89.9586 244.485 89.9134C246.858 90.3878 249.207 89.2356 251.534 89.9586C253.861 91.2689 256.166 89.3486 258.447 90.433C260.729 90.1845 262.966 90.4104 265.157 90.6363C267.349 91.0656 269.518 90.5912 271.619 90.8171C275.821 91.6982 279.797 91.2689 283.48 91.3819C287.162 91.8111 290.551 91.6982 293.556 91.6304C296.561 91.5626 299.204 91.5174 301.373 92.0597C305.711 92.9634 308.219 91.4045 308.219 92.3082C308.219 92.15 305.643 89.4163 302.209 82.3223C300.492 79.792 298.549 76.9001 296.629 73.2628C294.686 70.4613 292.765 66.1461 291.048 63.7513C287.614 58.9166 285.039 53.0425 285.039 53.7655C285.039 55.6181 281.582 55.957 275.573 60.4754C272.568 61.1306 268.908 65.7847 264.751 65.0843C262.672 66.5076 260.436 66.8691 258.109 66.8691C255.782 67.095 253.319 67.4113 250.766 67.2984C248.891 66.8465 246.406 68.4054 243.356 67.2532C240.328 66.7561 236.759 67.0498 232.737 67.0498C233.438 64.5421 234.274 62.1473 235.268 60.3851C235.268 61.221 236.985 57.3803 238.702 52.7488C240.419 48.9081 242.136 44.5478 242.136 45.1126C242.136 44.2993 238.408 42.9437 232.805 40.9782C230.004 40.6845 226.728 38.6963 223.226 37.4312C219.724 35.5334 215.996 34.4716 212.246 31.8734C208.518 29.7497 204.768 29.0946 201.266 27.0612C197.764 26.3157 194.488 23.1076 191.687 22.7913C186.084 19.8091 182.356 19.7865 182.356 18.6569C182.356 19.2443 183.034 20.6902 184.164 24.4405C184.728 26.6094 185.384 28.5749 186.152 30.8568C186.897 35.3753 187.733 36.9567 188.614 40.6619C189.495 43.1922 190.422 47.4622 191.371 51.6644C191.845 53.2685 192.319 55.6407 192.794 58.1936C193.268 60.7466 193.765 63.4351 194.24 65.7169C190.761 65.7847 187.214 65.4684 183.621 65.0165C180.029 63.2769 176.414 64.881 172.777 64.6325C169.14 64.9939 165.502 65.0617 161.865 63.9773C158.228 64.0225 154.613 64.0902 151.043 63.2543C147.474 63.0962 143.927 62.8476 140.447 62.5314C136.968 62.6669 133.579 61.7858 130.258 61.5825C123.638 59.9332 117.358 60.6336 111.687 59.6169C108.84 59.4588 106.129 59.2555 103.599 58.9166C101.069 58.7584 98.6965 57.8547 96.5276 57.3577C96.5276 57.8321 99.6905 60.3173 103.893 65.6717C105.994 67.208 108.366 69.0832 110.738 72.7205C113.11 75.3413 115.483 78.3461 117.584 81.1249C121.809 86.5019 124.949 88.7838 124.949 89.4389C124.949 89.3486 126.576 89.2356 129.919 88.6708C131.591 88.3997 133.692 88.2867 136.222 88.0156C138.753 88.3771 141.735 87.5186 145.146 87.4282C148.558 86.7956 152.444 87.2927 156.759 86.999C161.074 87.0441 165.864 87.2249 171.105 87.3378C174.313 87.4282 178.312 88.1512 182.876 87.7445C185.158 87.8123 187.598 87.2023 190.151 88.1512C192.704 88.8289 195.369 88.6708 198.148 88.2867C198.532 90.3878 198.894 93.6863 199.255 95.4711C199.617 97.0978 199.956 101.255 200.295 103.65C200.633 106.993 200.927 108.507 201.221 112.122C201.515 114.72 201.786 116.663 202.034 120.052C202.034 119.781 197.493 119.464 191.461 119.939C188.434 120.594 185.045 119.487 181.633 119.713C178.244 119.103 174.833 119.758 171.806 119.735C165.751 119.396 161.232 119.374 161.232 119.622C161.232 119.781 161.232 112.664 161.232 112.822C161.232 112.709 154.364 109.93 147.496 106.157C140.628 104.147 133.76 99.8766 133.76 99.4926C133.76 99.5152 133.805 102.678 133.895 108.439C133.941 111.173 133.986 114.72 134.054 118.606C134.121 117.002 134.189 124.028 134.257 130.828C134.302 127.326 134.325 128.321 134.37 137.674C134.415 125.112 134.438 147.117 134.483 144.632C134.528 150.551 134.573 157.6 134.596 152.336C134.641 154.528 134.686 170.794 134.709 159.905C134.754 166.954 134.799 171.427 134.822 167.609C134.867 168.241 134.912 164.017 134.935 174.884C134.98 173.483 135.002 179.063 135.048 182.09C135.093 185.637 135.115 186.135 135.161 189.004C135.228 193.68 135.296 197.724 135.364 201.384C135.432 205.383 135.477 208.275 135.522 211.393C135.612 214.014 135.658 221.153 135.658 220.339C135.658 219.3 137.262 220.972 139.634 218.397C142.029 217.177 145.214 216.069 148.4 213.697C151.585 213.223 154.771 209.721 157.166 209.314C159.56 206.965 161.142 207.258 161.142 207.055C161.142 209.54 161.142 196.595 161.142 196.64C161.142 196.572 165.999 195.669 170.857 196.572C175.714 197.25 180.571 196.279 180.571 196.504C178.9 199.238 177.205 201.791 175.556 204.208C173.884 206.332 172.257 208.049 170.608 211.054C168.981 213.901 167.355 214.601 165.773 217.719C164.169 219.142 162.588 219.684 161.052 223.728C158.973 223.186 156.94 227.208 154.952 231.41C152.963 233.262 151.021 233.262 149.145 237.781C147.27 241.689 145.44 241.893 143.678 243.022C141.916 244.807 140.221 246.682 138.572 248.941C135.319 251.043 132.337 253.776 129.716 256.555C127.095 259.56 124.791 261.119 122.916 262.926C119.165 266.744 117.042 266.767 117.042 267.241C117.042 266.067 121.515 269.523 125.966 271.602C130.439 275.239 134.89 276.323 134.89 275.962C134.89 275.149 137.759 272.98 142.368 271.398C144.672 269.071 147.406 267.874 150.433 266.292C153.461 264.237 156.782 261.774 160.261 259.176C162 257.775 163.785 256.397 165.57 254.996C167.355 253.596 169.185 252.172 171.015 250.749C174.652 248.038 178.312 244.491 181.837 241.554C185.361 237.803 188.772 234.415 191.89 231.297C195.031 227.75 197.877 224.135 200.34 220.769C199.549 227.388 198.668 233.646 197.719 239.475C196.77 246.569 195.754 252.76 194.737 255.606C194.217 257.798 193.698 260.034 193.178 262.271C192.658 264.508 192.139 267.128 191.597 268.823C190.557 273.161 189.518 277.769 188.547 281.068C187.552 284.05 186.626 288.795 185.79 289.879C184.932 290.466 184.186 295.663 183.554 296.657C182.266 299.119 181.498 300.701 181.498 301.943C181.498 300.181 186.016 301.333 192.048 299.029C195.053 298.193 198.465 297.515 201.853 296.702C205.242 296.047 208.631 295.866 211.659 293.652C217.691 289.879 222.209 294.397 222.209 290.737C222.729 284.773 223.226 284.208 223.7 284.389C224.175 282.243 224.627 280.051 225.056 277.95C225.914 273.477 226.66 270.427 227.338 262.203C228.016 257.097 228.58 249.732 229.077 243.949C229.574 238.436 230.004 231.206 230.343 223.638C233.618 226.01 237.798 230.145 242.294 234.889C246.812 239.249 251.692 245.327 256.392 251.404C261.091 257.594 265.654 264.327 269.518 272.573C273.652 272.776 279.91 272.867 285.129 273.635C290.348 274.606 294.55 274.471 294.55 274.381C294.55 274.539 295.002 267.219 295.454 259.944C295.906 252.353 296.358 245.349 296.358 245.507C296.358 245.891 293.624 244.378 289.173 239.633C286.959 238.82 284.316 236.109 281.379 233.443C278.442 231.523 275.211 227.772 271.8 225.739C268.388 222.079 264.819 220.701 261.226 217.674C257.612 213.607 253.974 212.432 250.427 209.405C246.88 207.145 243.424 204.231 240.193 202.085C236.962 199.216 233.957 197.137 231.291 196.279C231.133 196.504 231.02 195.962 230.885 196.03C230.885 195.804 231.314 195.669 231.314 196.03C231.314 195.578 233.325 195.601 236.352 195.985C239.379 196.03 243.424 196.346 247.445 195.894C251.489 195.827 255.51 195.262 258.538 195.781C261.565 195.962 263.576 195.352 263.576 195.781C263.576 196.527 263.531 199.826 263.486 203.169C263.44 205.293 263.395 210.692 263.395 210.557C263.395 210.941 264.977 210.421 267.349 209.111C269.721 208.817 272.884 206.761 276.047 204.999C279.21 203.598 282.373 202.288 284.745 200.955C287.117 200.368 288.699 199.622 288.699 199.441C288.699 200.323 288.608 193.454 288.495 187.648C288.428 183.152 288.382 179.673 288.315 176.601C288.247 172.421 288.179 168.241 288.134 165.734C288.021 160.018 287.931 154.731 287.931 153.94C287.863 150.981 288.247 146.914 289.038 143.525C289.828 140.407 291.048 137.086 292.652 133.72C292.652 133.268 297.691 124.435 297.691 123.892L297.736 123.779ZM161.187 175.652V141.989C161.187 142.802 165.886 141.808 172.144 141.74C175.262 141.311 178.787 140.114 182.311 141.514C185.835 140.182 189.36 141.786 192.478 141.289C198.736 141.74 203.435 141.492 203.435 141.04C203.661 145.446 203.796 150.551 203.887 155.047C203.955 160.108 203.955 165.417 203.887 169.416C203.842 170.614 203.819 172.624 203.774 174.567C203.774 175.245 199.052 175.493 192.749 174.861C189.586 174.883 186.061 175.674 182.514 175.177C178.967 175.742 175.42 175.765 172.28 175.403C165.977 175.268 161.255 174.161 161.255 175.697L161.187 175.652ZM263.892 172.986C263.892 171.088 261.882 171.811 258.854 173.076C255.827 173.166 251.805 171.788 247.761 173.415C243.717 174.771 239.696 173.573 236.668 173.709C233.641 174.025 231.63 173.618 231.63 173.844C231.63 171.653 231.653 169.552 231.653 165.553C231.653 162.684 231.653 161.69 231.653 157.194C231.653 154.596 231.63 149.49 231.608 148.812C231.585 147.14 231.563 143.909 231.517 140.407C231.517 140.769 233.573 140.656 236.646 140.182C239.718 139.639 243.83 140.001 247.919 140.023C252.031 138.216 256.12 139.888 259.193 139.775C262.266 140.453 264.322 141.221 264.322 139.662C264.322 139.255 264.299 141.899 264.254 144.971C264.209 148.699 264.163 153.172 264.118 156.335C264.073 159.498 264.005 163.791 263.983 167.496C263.937 170.614 263.915 171.811 263.915 173.008L263.892 172.986Z" fill="#D1132F"/>
<path d="M309.732 287.597C309.732 287.055 308.897 289.201 307.496 291.528C306.095 293.968 304.152 298.148 301.938 302.531C300.831 303.163 299.634 306.665 298.414 309.015C297.194 310.709 295.951 314.301 294.686 316.402C293.443 318.888 292.178 321.441 290.958 323.609C289.738 326.727 288.563 327.134 287.434 330.297C285.197 332.737 283.254 339.289 281.876 340.983C280.475 343.129 279.639 345.072 279.639 345.253C279.639 344.914 276.702 347.331 271.483 348.258C268.885 350.314 265.7 350.765 262.062 351.217C258.402 352.234 254.291 353.364 249.772 354.425C247.513 354.697 245.141 352.821 242.701 355.623C240.261 355.623 237.708 356.391 235.11 357.25C232.489 359.102 229.8 358.447 227.044 358.808C224.288 359.17 221.464 359.373 218.595 359.486C216.426 359.034 214.257 359.554 212.02 359.78C209.806 360.729 207.57 360.187 205.288 360.209C203.028 359.938 200.724 359.893 198.42 360.209C196.115 360.074 193.788 360.345 191.461 359.938C186.784 359.283 182.063 358.673 177.318 357.882C172.574 357.091 167.807 356.255 163.085 355.578C160.713 355.374 158.341 354.29 155.991 353.522C153.641 352.573 151.292 352.347 148.965 351.014C146.638 350.427 144.311 348.823 142.006 347.964C139.702 346.947 137.42 345.863 135.161 344.553C132.902 342.677 130.665 341.141 128.451 340.463C126.237 338.588 124.068 337.888 121.922 336.239C119.775 335.854 117.652 333.686 115.573 332.24C113.495 331.63 111.439 328.331 109.451 325.123C107.44 322.525 105.497 321.124 103.577 318.323C101.656 315.951 99.7811 313.578 97.9737 311.658C94.3363 307.275 90.9022 300.678 87.6941 295.414C87.6941 295.414 85.593 296.544 82.7238 299.594C80.8034 301.627 78.5442 304.315 76.3527 308.45C75.2457 310.799 74.1613 313.127 73.122 315.951C72.1053 318.616 71.1339 321.463 70.2754 323.768C69.4169 326.388 68.6939 329.303 68.1065 334.07C67.5191 338.34 67.1124 342.79 66.9091 346.925C63.4073 345.388 60.1765 340.237 57.1943 338.927C54.2347 337.572 51.5462 332.646 49.1289 331.946C46.7341 329.867 44.633 328.06 42.8256 325.439C41.0408 323.293 39.5497 321.124 38.3974 318.865C36.093 313.804 35.099 308.698 35.596 303.389C38.3523 299.006 43.0741 294.058 48.18 288.343C50.7329 286.174 53.3762 284.231 55.9066 282.401C58.4369 281.249 60.8543 279.238 62.9328 277.227C67.1124 274.674 70.0268 272.686 70.0268 272.889C70.0268 273.703 69.4394 270.698 68.7391 265.321C68.4002 262.339 68.0161 260.486 67.6546 255.584C67.3158 258.475 66.9769 246.66 66.7509 245.44C66.638 247.631 66.5476 227.682 66.4798 238.571C66.4121 237.939 66.3669 226.123 66.3669 231.681C66.3669 246.705 66.3895 227.682 66.4798 224.564C66.5476 204.389 66.6832 227.207 66.8413 217.515C67.0221 221.266 67.2254 204.321 67.5191 209.789C67.7902 204.389 68.1291 203.101 68.5357 201.881C68.9424 202.13 69.4168 196.007 69.9591 193.884C70.5013 190.472 71.1113 188.823 71.8116 185.841C71.8116 186.586 69.575 185.276 66.2087 185.276C62.8425 184.417 58.3466 185.005 53.8733 184.417C49.3774 183.491 44.9041 183.83 41.5378 183.423C38.1715 184.53 35.9349 182.881 35.9349 182.972C35.9349 181.616 33.9693 178.882 31.3486 173.618C30.0383 170.071 28.5697 167.699 27.0786 164.92C25.6101 162.616 24.119 158.188 22.8087 156.222C20.188 151.5 18.2224 147.004 18.2224 146.869C18.2224 146.891 22.4246 148.88 28.9086 149.919C32.1619 152.155 35.9801 151.726 40.1371 152.969C42.2156 153.037 44.3844 154.641 46.5985 154.957C48.8126 155.725 51.0944 156.245 53.3988 156.38C55.7032 157.081 58.0303 157.532 60.3573 157.984C62.6843 158.436 64.9887 158.933 67.2706 159.701C69.5524 160.379 71.8116 160.854 74.0031 161.238C76.1946 161.622 78.3183 162.345 80.3516 162.277C81.6619 158.798 83.1079 157.058 84.6667 154.234C86.2256 151.184 87.92 149.444 89.7274 146.53C89.7274 146.801 93.0711 148.993 97.5444 153.375C99.7811 155.657 102.289 158.007 104.797 159.679C107.304 162.503 109.812 164.288 112.049 166.072C116.499 169.326 119.866 169.055 119.866 172.918C119.866 171.359 119.03 176.51 117.697 178.114C117.042 179.131 116.251 181.413 115.392 184.124C114.534 186.903 113.608 188.913 112.636 192.618C111.665 196.301 110.671 199.622 109.699 203.011C108.728 208.094 107.756 207.01 106.852 214.782C106.401 217.696 105.971 217.267 105.542 221.017C105.135 223.751 104.729 224.361 104.367 228.247C104.006 229.467 103.644 235.183 103.351 235.476C103.034 240.944 102.763 242.954 102.515 243C102.04 249.755 101.701 254.07 101.566 258.859C101.43 263.852 101.476 269.885 101.792 275.623C101.95 278.673 102.628 281.655 103.78 284.434C104.932 287.213 106.581 289.63 108.66 292.003C110.332 293.697 112.094 295.369 113.947 297.493C115.799 298.374 117.742 300.068 119.753 301.288C121.763 301.966 122.17 303.886 125.017 305.694C127.186 308.427 128.383 308.631 130.71 309.489C133.015 310.009 133.67 310.506 136.11 311.974C138.55 312.855 142.752 314.392 145.282 314.889C149.1 315.363 151.021 315.273 155.042 316.922C159.064 317.419 163.559 318.187 167.716 318.391C171.873 319.272 176.279 319.452 180.549 319.272C184.796 319.272 190.399 319.204 194.692 319.136C198.984 318.052 205.559 318.006 209.851 317.668C211.998 317.69 260.187 309.534 262.469 307.027C266.468 306.1 274.24 303.231 277.764 302.079C281.311 300.204 286.869 297.718 289.851 296.386C292.856 296.047 296.154 292.839 298.527 291.867C300.899 291.799 302.955 289.63 304.604 289.63C307.948 287.371 309.778 287.846 309.778 287.642L309.732 287.597Z" fill="#D1132F"/>
</svg>
